<svg width="461" height="363" viewBox="0 0 461 363" xmlns="http://www.w3.org/2000/svg" xmlns:xlink="http://www.w3.org/1999/xlink"><title>meltycasa</title><defs><path id="a" d="M.939 73H34.9V.034H.939z"/></defs><g fill="none" fill-rule="evenodd"><path d="M47.91 333.36v-50.49l-16.528 33.056c-.606 1.31-1.814 2.016-3.226 2.016-1.31 0-2.518-.707-3.224-2.016L8.504 282.87v50.49a3.613 3.613 0 0 1-3.628 3.628c-1.915 0-3.528-1.611-3.528-3.627v-65.71c.101-2.016 1.613-3.627 3.528-3.627 1.311 0 2.62.806 3.226 2.014l20.054 40.313 20.156-40.313c.606-1.208 1.915-2.014 3.226-2.014 2.116 0 3.528 1.914 3.528 3.627v65.71c0 2.016-1.613 3.627-3.528 3.627a3.613 3.613 0 0 1-3.628-3.627M83.077 309.073h19.452v-3.528c0-5.341-4.334-9.775-9.676-9.775-5.442 0-9.776 4.434-9.776 9.775v3.528zm26.707-3.327v6.955c0 1.915-1.61 3.527-3.628 3.527H83.077v3.83c0 5.34 4.334 9.776 9.776 9.776 3.73 0 7.257-2.218 8.77-5.644.906-1.814 3.022-2.62 4.836-1.814 1.815.907 2.52 3.023 1.714 4.837-2.72 5.946-8.769 9.776-15.32 9.776-9.372 0-17.03-7.558-17.03-16.931v-14.513c0-9.271 7.658-16.931 17.03-16.931 9.272 0 16.931 7.66 16.931 17.132zM129.032 323.384v-55.732a3.613 3.613 0 0 1 3.628-3.628c1.915 0 3.528 1.612 3.528 3.628v55.732c0 3.628 2.619 6.45 6.046 6.45 3.326 0 5.947-2.822 5.947-6.45v-.202c0-1.915 1.61-3.527 3.526-3.527 2.017 0 3.628 1.612 3.628 3.527v.202c0 7.659-5.744 13.605-13.101 13.605-7.458 0-13.202-5.946-13.202-13.605M205.22 323.182v.202c0 7.659-5.747 13.605-13.205 13.605-7.357 0-13.1-5.946-13.1-13.605v-27.01h-6.25a3.613 3.613 0 0 1-3.628-3.628c0-1.915 1.613-3.527 3.628-3.527h6.25v-21.567a3.613 3.613 0 0 1 3.627-3.628c1.915 0 3.528 1.612 3.528 3.628v21.567h10.28c2.015 0 3.628 1.612 3.628 3.527a3.613 3.613 0 0 1-3.628 3.628h-10.28v27.01c0 3.628 2.621 6.45 5.945 6.45 3.428 0 6.048-2.822 6.048-6.45v-.202c0-1.915 1.613-3.527 3.528-3.527 2.015 0 3.628 1.612 3.628 3.527" fill="#1F2EA8"/><g transform="translate(220 288.58)"><mask id="b" fill="#fff"><use xlink:href="#a"/></mask><path d="M34.9 3.562v52.405c0 9.374-7.658 17.034-17.03 17.034C8.598 73 .939 66.347.939 56.975c0-1.915 1.61-3.528 3.627-3.528 2.017 0 3.628 1.613 3.628 3.528 0 5.442 4.334 8.768 9.676 8.768a9.721 9.721 0 0 0 9.776-9.775V44.678c-2.62 2.319-6.047 3.73-9.776 3.73-9.272 0-16.931-7.559-16.931-16.93V3.56c0-1.914 1.61-3.527 3.627-3.527 2.017 0 3.628 1.613 3.628 3.528v27.917c0 5.44 4.334 9.775 9.676 9.775 5.442 0 9.776-3.124 9.776-8.566V3.56c0-1.914 1.61-3.527 3.627-3.527 2.017 0 3.628 1.613 3.628 3.528" fill="#1F2EA8" mask="url(#b)"/></g><path d="M274.651 319.856v-14.11c0-9.372 7.558-17.132 16.931-17.132 8.465 0 15.52 6.45 16.73 14.412.301 2.015-1.009 3.83-2.924 4.132-2.015.302-3.829-1.008-4.132-3.024-.805-4.838-4.837-8.364-9.674-8.364-5.342 0-9.777 4.535-9.777 9.976v14.11c0 5.442 4.435 9.978 9.777 9.978 4.837 0 8.87-3.528 9.674-8.365.303-2.016 2.117-3.326 4.132-3.024 1.915.303 3.225 2.218 2.923 4.132-1.31 8.465-8.87 14.412-16.729 14.412-9.373 0-16.93-7.659-16.93-17.133M351.846 321.267v-16.931c0-5.442-4.435-8.566-9.776-8.566-5.443 0-9.777 4.434-9.777 9.775v14.412a9.722 9.722 0 0 0 9.777 9.776c5.341 0 9.776-3.124 9.776-8.466M359 292.141v41.219a3.612 3.612 0 0 1-3.628 3.629c-1.915 0-3.526-1.612-3.526-3.629v-.201c-2.72 2.318-6.048 3.83-9.776 3.83-9.373 0-16.93-7.659-16.93-17.032v-14.412a16.903 16.903 0 0 1 16.93-16.931c3.728 0 7.055 1.411 9.776 3.729v-.202c0-1.914 1.611-3.527 3.526-3.527 2.017 0 3.628 1.613 3.628 3.527M376.633 327.314c-.907-1.713-.2-3.93 1.613-4.736 1.814-.908 3.93-.202 4.837 1.51 2.418 4.94 7.86 5.746 10.885 5.746 2.518 0 8.264-.605 8.264-6.25 0-3.828-2.822-5.138-9.978-7.456-2.419-.807-4.837-1.613-7.256-2.722-3.528-1.713-8.264-4.837-8.264-11.79 0-7.357 6.651-13.002 15.52-13.002 7.56 0 13.403 3.729 15.621 9.978.704 1.914-.303 3.93-2.117 4.636-1.915.604-3.93-.303-4.636-2.218-1.209-3.325-4.433-5.24-8.868-5.24-2.52 0-4.736.705-6.249 1.915-.907.706-2.116 2.015-2.116 3.93 0 2.217.705 3.628 4.232 5.34 1.915.908 4.234 1.614 6.955 2.52 3.123 1.009 6.45 2.117 8.97 3.93 3.628 2.52 5.441 5.948 5.441 10.18 0 4.738-2.116 8.466-5.946 10.885-3.527 2.217-7.558 2.519-9.573 2.519-7.963 0-14.21-3.527-17.335-9.675M452.418 321.267v-16.931c0-5.442-4.435-8.566-9.776-8.566-5.443 0-9.777 4.434-9.777 9.775v14.412a9.722 9.722 0 0 0 9.777 9.776c5.341 0 9.776-3.124 9.776-8.466m7.154-29.126v41.219a3.612 3.612 0 0 1-3.628 3.629c-1.915 0-3.526-1.612-3.526-3.629v-.201c-2.72 2.318-6.048 3.83-9.776 3.83-9.373 0-16.93-7.659-16.93-17.032v-14.412a16.903 16.903 0 0 1 16.93-16.931c3.728 0 7.055 1.411 9.776 3.729v-.202c0-1.914 1.611-3.527 3.526-3.527 2.017 0 3.628 1.613 3.628 3.527" fill="#1F2EA8"/><path d="M93.387 200.06c-.333 9.185-2.53 16.66-7.178 21.224-4.043 3.972-10.343 5.93-17.166 5.93H26.596c-11.236-.623-15.292-2.498-19.974-6.867-4.894-4.568-7.035-11.164-6.556-20.3v-87.363c0-6.786 1.43-13.111 5.62-17.803 4.86-5.446 13.048-8.74 20.923-8.74h39.61c8.683 0 17.02 2.92 21.863 9.364 3.332 4.436 4.68 11.2 4.68 17.179l.625 87.377zM460.92 200.06c-.332 9.185-2.528 16.66-7.177 21.224-4.043 3.972-10.343 5.93-17.166 5.93H394.13c-11.236-.623-15.292-2.498-19.974-6.867-4.894-4.568-7.035-11.164-6.556-20.3v-87.363c0-6.786 1.43-13.111 5.62-17.803 4.86-5.446 13.048-8.74 20.923-8.74h39.61c8.683 0 17.02 2.92 21.863 9.364 3.332 4.436 4.68 11.2 4.68 17.179l.625 87.377z" fill="#616DC2"/><path d="M102.124 134.83H357.74v71.474s.938 13.106 8.74 20.284H93.384s7.178-5.305 9.364-18.726l-.624-73.032z" fill="#4E5ABA"/><path d="M25.032 236.577H61.86s2.184 9.674-8.116 11.547H33.77s-8.115.314-8.74-11.547M400.185 236.888h36.829s2.183 9.674-8.117 11.547h-19.972s-8.117.314-8.74-11.547" fill="#CACEEA"/><path d="M400.81 5.618C394.382.395 384.135 0 381.147 0H68.66C60.7 0 55.308 2.341 51.095 7.022c-4.213 4.682-5.618 14.045-5.618 14.045l.155 56.96s6.948-.053 16.23.156c7.323.163 16.525-.604 21.068 1.872 16.175 8.823 18.258 21.536 19.194 25.281.937 3.745 0 19.82 0 19.82l212.179.258-21.722-7.986c-7.94-3.428-11.387-6.307-14.184-11.845-2.83-5.604-2.686-11.909.44-19.272l12.426-33.814c2.317-6.304 5.835-10.749 10.458-13.214 5.752-3.07 13.5-3.448 20.222-.977l39.653 14.571c7.8 2.867 13.409 8.287 15.389 14.872 1.427 4.743.556 9.865-.375 13.227 3.059-1.473 6.194-2.58 8.75-2.793 5.619-.468 22.472 0 22.472 0V31.367c0-9.842.469-19.663-7.022-25.749" fill="#4E5ABA"/><path d="M359.183 102.446l2.07-5.86a54.525 54.525 0 0 0-2.07 5.86" fill="#FFC106"/><path d="M366.978 80.382c1.373-3.74 1.765-7.528 1.04-9.938-1.124-3.737-4.643-6.938-9.652-8.778l-39.652-14.572c-4.221-1.552-9.164-1.375-12.588.451-2.567 1.37-4.555 4.045-6.075 8.181l-12.558 34.156c-2.688 6.278-1.71 9.558-.738 11.48 1.375 2.723 2.494 4.415 9.42 7.419l41.457 15.233c3.665 1.35 7.169 1.487 9.608.386 2.892-1.306 5.563-4.775 7.732-10.037l4.21-11.918a54.525 54.525 0 0 1 2.07-5.858l5.726-16.205z" fill="#CACEEA"/></g></svg>