<?xml version="1.0" encoding="UTF-8" standalone="no"?>
<svg width="461px" height="363px" viewBox="0 0 461 363" version="1.1" xmlns="http://www.w3.org/2000/svg" xmlns:xlink="http://www.w3.org/1999/xlink">
    <!-- Generator: Sketch 3.8.3 (29802) - http://www.bohemiancoding.com/sketch -->
    <title>meltycasa</title>
    <desc>Created with Sketch.</desc>
    <defs>
        <polygon id="path-1" points="0.9388 73 34.9008 73 34.9008 0.0335 0.9388 0.0335"></polygon>
    </defs>
    <g id="Page-1" stroke="none" stroke-width="1" fill="none" fill-rule="evenodd">
        <g id="meltycasa">
            <g id="Page-1">
                <path d="M47.9103,333.3605 L47.9103,282.8695 L31.3823,315.9265 C30.7763,317.2355 29.5683,317.9415 28.1563,317.9415 C26.8463,317.9415 25.6383,317.2355 24.9323,315.9265 L8.5043,282.8695 L8.5043,333.3605 C8.5043,335.3765 6.8913,336.9885 4.8763,336.9885 C2.9613,336.9885 1.3483,335.3765 1.3483,333.3605 L1.3483,267.6515 C1.4493,265.6355 2.9613,264.0235 4.8763,264.0235 C6.1873,264.0235 7.4963,264.8305 8.1023,266.0385 L28.1563,306.3515 L48.3123,266.0385 C48.9183,264.8305 50.2273,264.0235 51.5383,264.0235 C53.6543,264.0235 55.0663,265.9385 55.0663,267.6515 L55.0663,333.3605 C55.0663,335.3765 53.4533,336.9885 51.5383,336.9885 C49.5233,336.9885 47.9103,335.3765 47.9103,333.3605" id="Fill-1" fill="#1F2EA8"></path>
                <path d="M83.0771,309.0729 L102.5291,309.0729 L102.5291,305.5449 C102.5291,300.2039 98.1951,295.7699 92.8531,295.7699 C87.4111,295.7699 83.0771,300.2039 83.0771,305.5449 L83.0771,309.0729 Z M109.7841,305.7459 L109.7841,312.7009 C109.7841,314.6159 108.1731,316.2279 106.1561,316.2279 L83.0771,316.2279 L83.0771,320.0579 C83.0771,325.3989 87.4111,329.8339 92.8531,329.8339 C96.5821,329.8339 100.1101,327.6159 101.6221,324.1899 C102.5291,322.3759 104.6451,321.5699 106.4591,322.3759 C108.2741,323.2829 108.9791,325.3989 108.1731,327.2129 C105.4521,333.1589 99.4041,336.9889 92.8531,336.9889 C83.4811,336.9889 75.8221,329.4309 75.8221,320.0579 L75.8221,305.5449 C75.8221,296.2739 83.4811,288.6139 92.8531,288.6139 C102.1251,288.6139 109.7841,296.2739 109.7841,305.7459 L109.7841,305.7459 Z" id="Fill-3" fill="#1F2EA8"></path>
                <path d="M129.0317,323.3838 L129.0317,267.6518 C129.0317,265.6358 130.6447,264.0238 132.6597,264.0238 C134.5747,264.0238 136.1877,265.6358 136.1877,267.6518 L136.1877,323.3838 C136.1877,327.0118 138.8067,329.8338 142.2337,329.8338 C145.5597,329.8338 148.1807,327.0118 148.1807,323.3838 L148.1807,323.1818 C148.1807,321.2668 149.7917,319.6548 151.7067,319.6548 C153.7237,319.6548 155.3347,321.2668 155.3347,323.1818 L155.3347,323.3838 C155.3347,331.0428 149.5907,336.9888 142.2337,336.9888 C134.7757,336.9888 129.0317,331.0428 129.0317,323.3838" id="Fill-5" fill="#1F2EA8"></path>
                <path d="M205.2192,323.1818 L205.2192,323.3838 C205.2192,331.0428 199.4732,336.9888 192.0152,336.9888 C184.6582,336.9888 178.9142,331.0428 178.9142,323.3838 L178.9142,296.3738 L172.6652,296.3738 C170.6502,296.3738 169.0372,294.7618 169.0372,292.7458 C169.0372,290.8308 170.6502,289.2188 172.6652,289.2188 L178.9142,289.2188 L178.9142,267.6518 C178.9142,265.6358 180.5272,264.0238 182.5422,264.0238 C184.4572,264.0238 186.0702,265.6358 186.0702,267.6518 L186.0702,289.2188 L196.3502,289.2188 C198.3652,289.2188 199.9782,290.8308 199.9782,292.7458 C199.9782,294.7618 198.3652,296.3738 196.3502,296.3738 L186.0702,296.3738 L186.0702,323.3838 C186.0702,327.0118 188.6912,329.8338 192.0152,329.8338 C195.4432,329.8338 198.0632,327.0118 198.0632,323.3838 L198.0632,323.1818 C198.0632,321.2668 199.6762,319.6548 201.5912,319.6548 C203.6062,319.6548 205.2192,321.2668 205.2192,323.1818" id="Fill-7" fill="#1F2EA8"></path>
                <g id="Group-11" transform="translate(220.000000, 288.580000)">
                    <mask id="mask-2" fill="white">
                        <use xlink:href="#path-1"></use>
                    </mask>
                    <g id="Clip-10"></g>
                    <path d="M34.9008,3.5615 L34.9008,55.9675 C34.9008,65.3405 27.2418,73.0005 17.8698,73.0005 C8.5978,73.0005 0.9388,66.3475 0.9388,56.9755 C0.9388,55.0605 2.5498,53.4475 4.5658,53.4475 C6.5828,53.4475 8.1938,55.0605 8.1938,56.9755 C8.1938,62.4175 12.5278,65.7435 17.8698,65.7435 C23.3118,65.7435 27.6458,61.4105 27.6458,55.9675 L27.6458,44.6795 C25.0258,46.9975 21.5988,48.4085 17.8698,48.4085 C8.5978,48.4085 0.9388,40.8505 0.9388,31.4785 L0.9388,3.5615 C0.9388,1.6465 2.5498,0.0335 4.5658,0.0335 C6.5828,0.0335 8.1938,1.6465 8.1938,3.5615 L8.1938,31.4785 C8.1938,36.9195 12.5278,41.2535 17.8698,41.2535 C23.3118,41.2535 27.6458,38.1295 27.6458,32.6875 L27.6458,3.5615 C27.6458,1.6465 29.2568,0.0335 31.2728,0.0335 C33.2898,0.0335 34.9008,1.6465 34.9008,3.5615" id="Fill-9" fill="#1F2EA8" mask="url(#mask-2)"></path>
                </g>
                <path d="M274.6513,319.8561 L274.6513,305.7461 C274.6513,296.3741 282.2093,288.6141 291.5823,288.6141 C300.0473,288.6141 307.1023,295.0641 308.3113,303.0261 C308.6133,305.0411 307.3033,306.8551 305.3883,307.1581 C303.3733,307.4601 301.5593,306.1501 301.2563,304.1341 C300.4513,299.2961 296.4193,295.7701 291.5823,295.7701 C286.2403,295.7701 281.8053,300.3051 281.8053,305.7461 L281.8053,319.8561 C281.8053,325.2981 286.2403,329.8341 291.5823,329.8341 C296.4193,329.8341 300.4513,326.3061 301.2563,321.4691 C301.5593,319.4531 303.3733,318.1431 305.3883,318.4451 C307.3033,318.7481 308.6133,320.6631 308.3113,322.5771 C307.0013,331.0421 299.4413,336.9891 291.5823,336.9891 C282.2093,336.9891 274.6513,329.3301 274.6513,319.8561" id="Fill-12" fill="#1F2EA8"></path>
                <path d="M351.8463,321.267 L351.8463,304.336 C351.8463,298.894 347.4113,295.77 342.0703,295.77 C336.6273,295.77 332.2933,300.204 332.2933,305.545 L332.2933,319.957 C332.2933,325.399 336.6273,329.733 342.0703,329.733 C347.4113,329.733 351.8463,326.609 351.8463,321.267 M359.0003,292.141 L359.0003,333.36 C359.0003,335.377 357.3893,336.989 355.3723,336.989 C353.4573,336.989 351.8463,335.377 351.8463,333.36 L351.8463,333.159 C349.1253,335.477 345.7983,336.989 342.0703,336.989 C332.6973,336.989 325.1393,329.33 325.1393,319.957 L325.1393,305.545 C325.1393,296.173 332.6973,288.614 342.0703,288.614 C345.7983,288.614 349.1253,290.025 351.8463,292.343 L351.8463,292.141 C351.8463,290.227 353.4573,288.614 355.3723,288.614 C357.3893,288.614 359.0003,290.227 359.0003,292.141" id="Fill-14" fill="#1F2EA8"></path>
                <path d="M376.6331,327.3137 C375.7261,325.6007 376.4321,323.3837 378.2461,322.5777 C380.0601,321.6697 382.1761,322.3757 383.0831,324.0887 C385.5011,329.0277 390.9431,329.8337 393.9681,329.8337 C396.4861,329.8337 402.2321,329.2287 402.2321,323.5847 C402.2321,319.7557 399.4101,318.4457 392.2541,316.1277 C389.8351,315.3207 387.4171,314.5147 384.9981,313.4057 C381.4701,311.6927 376.7341,308.5687 376.7341,301.6157 C376.7341,294.2587 383.3851,288.6137 392.2541,288.6137 C399.8131,288.6137 405.6571,292.3427 407.8751,298.5917 C408.5791,300.5057 407.5721,302.5227 405.7581,303.2277 C403.8431,303.8317 401.8281,302.9247 401.1221,301.0097 C399.9131,297.6847 396.6891,295.7697 392.2541,295.7697 C389.7341,295.7697 387.5181,296.4747 386.0051,297.6847 C385.0981,298.3907 383.8891,299.6997 383.8891,301.6157 C383.8891,303.8317 384.5941,305.2427 388.1211,306.9557 C390.0361,307.8627 392.3551,308.5687 395.0761,309.4757 C398.1991,310.4837 401.5261,311.5917 404.0461,313.4057 C407.6741,315.9257 409.4871,319.3527 409.4871,323.5847 C409.4871,328.3227 407.3711,332.0507 403.5411,334.4697 C400.0141,336.6867 395.9831,336.9887 393.9681,336.9887 C386.0051,336.9887 379.7571,333.4617 376.6331,327.3137" id="Fill-16" fill="#1F2EA8"></path>
                <path d="M452.4183,321.267 L452.4183,304.336 C452.4183,298.894 447.9833,295.77 442.6423,295.77 C437.1993,295.77 432.8653,300.204 432.8653,305.545 L432.8653,319.957 C432.8653,325.399 437.1993,329.733 442.6423,329.733 C447.9833,329.733 452.4183,326.609 452.4183,321.267 M459.5723,292.141 L459.5723,333.36 C459.5723,335.377 457.9613,336.989 455.9443,336.989 C454.0293,336.989 452.4183,335.377 452.4183,333.36 L452.4183,333.159 C449.6973,335.477 446.3703,336.989 442.6423,336.989 C433.2693,336.989 425.7113,329.33 425.7113,319.957 L425.7113,305.545 C425.7113,296.173 433.2693,288.614 442.6423,288.614 C446.3703,288.614 449.6973,290.025 452.4183,292.343 L452.4183,292.141 C452.4183,290.227 454.0293,288.614 455.9443,288.614 C457.9613,288.614 459.5723,290.227 459.5723,292.141" id="Fill-18" fill="#1F2EA8"></path>
                <path d="M93.3866,200.0607 C93.0536,209.2447 90.8576,216.7207 86.2086,221.2837 C82.1656,225.2557 75.8656,227.2137 69.0426,227.2137 L26.5956,227.2137 C15.3596,226.5907 11.3036,224.7157 6.6216,220.3467 C1.7276,215.7787 -0.4134,209.1827 0.0656,200.0477 L0.0656,112.6837 C0.0656,105.8977 1.4956,99.5727 5.6856,94.8807 C10.5466,89.4347 18.7336,86.1417 26.6086,86.1417 L66.2186,86.1417 C74.9016,86.1417 83.2386,89.0607 88.0816,95.5047 C91.4136,99.9407 92.7616,106.7057 92.7616,112.6837 L93.3866,200.0607 Z" id="Fill-20" fill="#616DC2"></path>
                <path d="M460.9209,200.0607 C460.5879,209.2447 458.3919,216.7207 453.7429,221.2837 C449.6999,225.2557 443.3999,227.2137 436.5769,227.2137 L394.1299,227.2137 C382.8939,226.5907 378.8379,224.7157 374.1559,220.3467 C369.2619,215.7787 367.1209,209.1827 367.5999,200.0477 L367.5999,112.6837 C367.5999,105.8977 369.0299,99.5727 373.2199,94.8807 C378.0809,89.4347 386.2679,86.1417 394.1429,86.1417 L433.7529,86.1417 C442.4359,86.1417 450.7729,89.0607 455.6159,95.5047 C458.9479,99.9407 460.2959,106.7057 460.2959,112.6837 L460.9209,200.0607 Z" id="Fill-22" fill="#616DC2"></path>
                <path d="M102.1243,134.8302 L357.7393,134.8302 L357.7393,206.3042 C357.7393,206.3042 358.6773,219.4102 366.4793,226.5882 L93.3843,226.5882 C93.3843,226.5882 100.5623,221.2832 102.7483,207.8622 L102.1243,134.8302 Z" id="Fill-24" fill="#4E5ABA"></path>
                <path d="M25.0318,236.5771 L61.8608,236.5771 C61.8608,236.5771 64.0448,246.2511 53.7448,248.1241 L33.7708,248.1241 C33.7708,248.1241 25.6558,248.4381 25.0318,236.5771" id="Fill-26" fill="#CACEEA"></path>
                <path d="M400.1845,236.888 L437.0135,236.888 C437.0135,236.888 439.1975,246.562 428.8975,248.435 L408.9245,248.435 C408.9245,248.435 400.8085,248.749 400.1845,236.888" id="Fill-28" fill="#CACEEA"></path>
                <path d="M400.8096,5.6181 C394.3816,0.3951 384.1346,0.0001 381.1466,0.0001 L68.6596,0.0001 C60.7006,0.0001 55.3076,2.3411 51.0946,7.0221 C46.8816,11.7041 45.4766,21.0671 45.4766,21.0671 L45.6316,78.0261 C45.6316,78.0261 52.5796,77.9741 61.8626,78.1831 C69.1846,78.3461 78.3866,77.5791 82.9296,80.0551 C99.1046,88.8781 101.1876,101.5911 102.1236,105.3361 C103.0606,109.0811 102.1236,125.1551 102.1236,125.1551 L314.3026,125.4141 L292.5806,117.4281 C284.6406,114.0001 281.1936,111.1211 278.3966,105.5831 C275.5666,99.9791 275.7106,93.6741 278.8376,86.3111 L291.2626,52.4971 C293.5796,46.1931 297.0976,41.7481 301.7206,39.2831 C307.4726,36.2121 315.2206,35.8351 321.9426,38.3061 L361.5956,52.8771 C369.3956,55.7441 375.0046,61.1641 376.9846,67.7491 C378.4116,72.4921 377.5406,77.6141 376.6096,80.9761 C379.6686,79.5031 382.8036,78.3961 385.3606,78.1831 C390.9786,77.7151 407.8316,78.1831 407.8316,78.1831 L407.8316,31.3671 C407.8316,21.5251 408.3006,11.7041 400.8096,5.6181" id="Fill-30" fill="#4E5ABA"></path>
                <path d="M359.1827,102.4456 L361.2527,96.5866 C360.4597,98.4806 359.7527,100.4736 359.1827,102.4456" id="Fill-32" fill="#FFC106"></path>
                <path d="M366.9778,80.3825 C368.3508,76.6415 368.7428,72.8545 368.0188,70.4445 C366.8938,66.7075 363.3748,63.5065 358.3658,61.6665 L318.7138,47.0945 C314.4928,45.5425 309.5498,45.7195 306.1258,47.5455 C303.5588,48.9145 301.5708,51.5905 300.0508,55.7265 L287.4928,89.8815 C284.8048,96.1605 285.7828,99.4405 286.7548,101.3625 C288.1298,104.0845 289.2488,105.7765 296.1748,108.7805 L337.6318,124.0145 C341.2968,125.3635 344.8008,125.5005 347.2398,124.3995 C350.1318,123.0945 352.8028,119.6255 354.9718,114.3635 L359.1828,102.4455 C359.7528,100.4735 360.4598,98.4805 361.2528,96.5865 L366.9778,80.3825 Z" id="Fill-34" fill="#CACEEA"></path>
            </g>
        </g>
    </g>
</svg>
