<svg width="540" height="207" viewBox="0 0 540 207" xmlns="http://www.w3.org/2000/svg"><title>mibclean</title><g fill="none" fill-rule="evenodd"><path d="M94.276 206.399C93.967 206.29.287 154.964.152 154.828c-.02-.02-.038-23.296-.038-51.724 0-41.25.03-51.713.147-51.818.08-.073 1.616-.921 3.414-1.885 1.797-.964 23.093-12.454 47.324-25.534L95.056.087l.7.367c.385.203 21.838 11.645 47.674 25.428l46.975 25.06v104.286L143.78 180.5c-25.643 13.9-46.913 25.418-47.266 25.597-.735.372-1.673.499-2.238.302zm11.552-51.98c.087-.055 4.591-17.622 10.42-40.635 5.647-22.296 10.292-40.563 10.322-40.593.03-.03.055 18.174.055 40.453 0 36.67.017 40.526.183 40.692.164.164 1.223.183 9.912.183 8.688 0 9.748-.02 9.911-.183.167-.166.184-4.995.184-51.401 0-46.406-.017-51.235-.184-51.4-.165-.166-1.745-.184-15.667-.182-8.517 0-15.552.044-15.634.096-.105.066-19.983 77.021-19.983 77.36 0 .02-.05.035-.113.035-.062 0-.218-.355-.346-.788-.129-.433-4.701-17.699-10.162-38.367-5.461-20.669-9.986-37.724-10.055-37.9l-.126-.322H63.701c-9.429 0-10.962.025-11.744.185-2.36.484-4.403 1.78-6.05 3.837a10.971 10.971 0 0 0-2.365 5.607c-.091.746-.128 14.39-.129 47.178v46.128H63.37v-40.788c0-25.15.042-40.79.109-40.79.06 0 .137.093.172.205.035.112 4.637 18.27 10.227 40.351 5.59 22.081 10.214 40.344 10.277 40.584l.114.436 5.51.032c13.904.08 15.906.077 16.05-.013z" fill="#9199D5"/><path d="M231.66 108.161c0-32.62.038-46.202.13-46.949.478-3.927 3.003-7.315 6.547-8.789 1.866-.776.421-.735 24.542-.689 19.438.038 21.997.064 23.4.236 5.609.689 9.11 1.622 12.78 3.405 2.77 1.347 4.71 2.726 6.611 4.7 3.24 3.363 5.099 7.4 5.897 12.808.257 1.74.295 7.11.062 8.753-1.107 7.814-4.361 12.71-10.86 16.34-.8.447-1.186.727-1.162.845.02.1.59.412 1.318.722 7.87 3.343 12.348 8.589 13.882 16.262.495 2.475.59 3.669.586 7.32-.005 3.587-.122 4.952-.643 7.47-2.196 10.625-9.227 17.935-20.535 21.35-1.802.544-4.717 1.19-6.594 1.46-4.2.603-2.518.57-30.198.613l-25.763.042V108.16zm48.842 27.566c4.746-.461 7.896-1.717 10.06-4.012 1.444-1.53 2.224-3.075 2.722-5.388.357-1.66.448-5.099.182-6.909-1.027-6.983-5.147-10.134-14.073-10.76-.988-.07-6.972-.12-14.376-.12-11.375-.001-12.702.018-12.866.182-.165.165-.184 1.547-.184 13.47 0 7.308.032 13.37.071 13.472.064.166 1.376.184 13.684.181 7.902-.002 14.102-.05 14.78-.116zm-2.218-44.229c4.598-.37 7.667-1.487 9.89-3.599 1.37-1.3 2.224-2.927 2.668-5.08.32-1.552.264-4.488-.115-5.994-1.116-4.433-4.245-6.645-10.634-7.518-.687-.094-5.109-.15-14.41-.183-12.662-.044-13.426-.035-13.567.157-.118.162-.149 2.445-.149 11.085 0 9.737.02 10.9.184 11.065.164.164 1.453.183 12.458.182 6.828-.001 12.896-.052 13.675-.115zM200.855 57.62c.983-2.937 2.892-4.688 6.042-5.543l1.13-.307 6.332-.042 6.33-.042v102.366h-20.54l.002-46.536c0-51.131-.05-47.65.704-49.896z" fill="#9098D5"/><path d="M341.773 149.726c-3.27-.445-6.109-1.906-8.411-4.332-2.957-3.115-4.744-6.966-5.296-11.412-.177-1.425-.15-5.277.052-7.18 1.138-10.759 6.805-23.969 17.021-39.68 7.051-10.845 14.603-20.132 22.192-27.29 6.823-6.437 12.668-10.436 17.856-12.217 2.025-.696 3.246-.933 5.204-1.013 2.003-.081 3.247.068 4.559.547 2.797 1.02 5.07 3.852 5.715 7.12.19.96.188 4.501-.003 5.835-1.265 8.848-7.436 19.907-15.359 27.523-2.595 2.495-4.413 3.63-5.975 3.73-1.153.074-1.745-.161-2.705-1.075-1.02-.972-1.295-1.58-1.296-2.882-.001-.916.035-1.079.404-1.815.52-1.039 1.77-2.388 3.396-3.665 2.758-2.165 3.3-2.61 4.617-3.795 3.157-2.838 6.079-6.584 8.452-10.836 3.76-6.737 4.31-12.505 1.336-14.013-1.772-.897-3.844-.573-7.091 1.11-9.3 4.82-23.764 19.823-33.94 35.206-8.032 12.142-13.59 25.541-15.048 36.276-.307 2.258-.361 5.268-.122 6.72.463 2.811 1.54 5.028 3.39 6.98 2.987 3.15 6.656 3.974 11.142 2.5 1.236-.407 3.922-1.738 5.373-2.663 5.18-3.303 11.164-9.04 16.005-15.346 3.473-4.523 6.41-8.684 7.62-10.796.692-1.209 1.298-1.942 1.84-2.227.174-.09.633-.165 1.02-.165.613 0 .753.044 1.085.34.365.327.381.378.38 1.197-.003 1.112-.345 2.165-1.34 4.123-.982 1.935-2.003 3.627-3.908 6.477-4.164 6.23-7.256 10.11-11.208 14.062-6.989 6.988-14.196 11.323-20.772 12.497-1.252.223-5.003.32-6.185.159zm179.96-.23c-2.235-.865-4.295-4.231-5.032-8.223-.271-1.474-.31-6.399-.062-8.053.76-5.074 2.712-10.374 5.858-15.91.523-.92.92-1.702.883-1.739-.087-.087-1.024.541-2.347 1.572-5.168 4.031-10.352 10.657-15.069 19.26-1.342 2.447-1.696 2.972-2.665 3.943-1.059 1.06-1.479 1.26-2.776 1.315-.93.04-1.066.017-1.535-.258-1.923-1.127-2.093-3.428-.56-7.54 1.841-4.937 7.086-15.407 12.125-24.205 2.676-4.672 4.023-6.651 5.568-8.185 1.096-1.087 1.602-1.366 2.604-1.433.621-.042.799-.006 1.238.251 1.078.632 1.706 1.67 1.71 2.83.005 1.361-.41 2.222-2.841 5.903-1.853 2.805-3.692 5.858-3.692 6.128 0 .085.06.154.132.154.072 0 .988-.836 2.035-1.858 3.714-3.624 7.907-7.316 10.904-9.598 4.12-3.139 6.857-4.533 8.899-4.533 1.084 0 1.542.15 2.106.686.596.568.827 1.37.757 2.63-.096 1.743-.669 2.785-3.232 5.887-7.327 8.865-11.467 16.369-12.89 23.358-.53 2.611-.664 4.703-.415 6.493.272 1.958.637 3.03 1.866 5.48 1.188 2.37 1.373 2.933 1.223 3.732-.101.538-1.09 1.626-1.757 1.932-.653.3-2.237.29-3.034-.019zm-30.693-4.745c-1.26-.167-3.018-1.04-4.143-2.056-2.9-2.62-3.799-5.345-3.48-10.557.07-1.172.091-2.17.045-2.217-.103-.102-.094-.114-1.397 2.002-1.555 2.53-3.401 4.938-5.021 6.554-1.513 1.51-2.49 2.263-3.76 2.899-1.4.7-2.008.831-3.835.825-1.485-.006-1.705-.034-2.423-.316-2.378-.936-4.228-3.377-4.835-6.381-.22-1.083-.242-4.443-.043-6.135.678-5.737 3.288-12.434 7.434-19.074a47.918 47.918 0 0 1 7.236-9c3.883-3.794 7.355-5.988 11.013-6.955.843-.224 1.513-.308 2.8-.354 1.974-.071 3.004.095 4.188.677 1.057.519 2.36 1.788 2.844 2.77.351.712.382.87.418 2.135.039 1.363.038 1.37-.509 2.99l-.548 1.624.284.456c.488.783.676 1.41.676 2.247 0 1.297-.396 2.256-2.552 6.176-1.808 3.288-4.05 9.011-5.085 12.982-1.14 4.37-1.168 6.995-.098 9.194.626 1.285 1.236 1.846 2.95 2.71 1.758.887 2.136 1.162 2.535 1.843.37.632.501 2.043.266 2.882-.2.715-1.103 1.61-1.943 1.924-.611.228-1.947.297-3.017.155zm-18.206-11.048c2.46-.658 5.001-3.331 8.147-8.569 1.606-2.675 2.783-4.881 5.553-10.412 3.386-6.76 3.994-7.774 5.416-9.03.839-.74.837-.824-.038-1.98-.714-.943-1.54-1.517-2.574-1.787-.728-.19-.823-.19-1.806.003-3.72.73-7.638 4.35-11.777 10.88-4.231 6.676-6.48 12.567-6.48 16.972 0 2.22.576 3.41 1.867 3.854.77.265.936.271 1.692.07zm-80.703 7.525c-.9-.29-1.268-.501-1.956-1.12-.78-.701-1.487-1.771-1.763-2.669-1.612-5.243 2.682-18.07 12.841-38.355 5.468-10.918 10.424-19.575 15.97-27.898 9.444-14.168 16.563-21.566 22.123-22.988 1.227-.314 2.801-.313 3.734.003 1.263.427 2.605 1.877 3.092 3.34.236.712.252.927.193 2.656-.074 2.162-.27 3.158-1.088 5.547-2.202 6.425-7.051 14.58-15.135 25.452-7.13 9.588-14.167 17.182-25.406 27.414-2.086 1.899-4.008 3.663-4.27 3.92-.427.42-.585.763-1.535 3.327-1.857 5.013-2.979 8.646-3.267 10.58-.203 1.358.227 2.215 1.249 2.49 1.67.45 4.79-1.768 7.618-5.417.971-1.254 3.047-4.347 4.808-7.168 1.932-3.093 2.638-3.696 4.234-3.616.813.041.897.07 1.212.423.316.354.338.441.338 1.365 0 1.186-.334 2.206-1.349 4.123-1.747 3.3-5.866 9.063-8.86 12.392-3.192 3.552-6.615 5.843-9.405 6.295-1.142.186-2.638.143-3.378-.096zm15.436-38.26c5.935-5.342 12.07-12.248 17.486-19.68 5.357-7.35 11.014-16.822 12.952-21.687.528-1.327.924-2.84.925-3.54.001-1.01-.768-1.778-1.633-1.63-2.853.491-7.304 5.373-13.956 15.308-3.576 5.34-6.637 10.477-10.14 17.016-2.314 4.319-7.648 15.248-7.648 15.67 0 .08.053.144.118.144s.918-.72 1.896-1.601zm19.477 38.236c-3.785-.58-6.872-3.103-7.99-6.527-.458-1.402-.587-2.741-.515-5.334.117-4.274.994-7.673 3.063-11.878 2.01-4.082 4.996-8.046 9.278-12.313 4.819-4.801 9.041-7.631 12.899-8.643 1.343-.353 3.627-.44 4.55-.173 1.05.303 1.75.732 2.502 1.537.835.892 1.17 1.702 1.257 3.034.2 3.082-1.424 7.142-4.722 11.805-1.087 1.538-2.096 2.721-3.742 4.39-4.33 4.394-9.34 7.428-15.978 9.68-1.586.538-1.549.498-1.551 1.656-.004 1.36.582 2.8 1.535 3.774 2.48 2.536 7.346 2.586 12.25.125 4.352-2.184 8.521-5.668 13.536-11.313 2.587-2.91 3.218-3.384 4.514-3.384.711 0 .757.018 1.279.511.516.488.543.545.587 1.255.061.986-.237 1.767-1.26 3.296-2.044 3.054-7.265 8.241-11.494 11.418-4.828 3.626-10.006 6.14-14.266 6.925-1.222.225-4.677.32-5.732.159zm2.568-20.36c3.277-1.312 5.59-2.684 7.94-4.712a31.026 31.026 0 0 0 5.712-6.482c1.835-2.754 2.28-4.29 1.565-5.383-.609-.928-2.724-.36-5.135 1.378-4.373 3.155-7.822 7.48-10.817 13.566-.504 1.024-.917 1.93-.917 2.013 0 .24.245.184 1.652-.38z" fill="#1F2EA8"/><path d="M67.805 191.774l-47.062-25.812L.23 154.712l.03-51.65.029-51.65 2.393-1.29c1.315-.708 5.464-2.947 9.22-4.974A303652.016 303652.016 0 0 1 69.38 14.122c2.824-1.524 9.72-5.245 15.323-8.271 5.604-3.025 10.238-5.5 10.3-5.5.07 0 .108 23.413.102 63.808-.008 54.684-.033 63.743-.172 63.343-.09-.257-4.655-17.457-10.146-38.222-7.17-27.114-10.04-37.796-10.183-37.903-.16-.12-2.416-.143-11.232-.117l-11.031.033-1.041.326c-2.434.762-4.33 2.115-5.838 4.167-1.104 1.502-1.918 3.597-2.154 5.543-.09.743-.128 14.483-.128 46.995 0 41.613.017 45.962.183 46.128.164.164 1.23.184 10.008.182 5.987-.001 9.892-.045 9.999-.112.155-.098.182-4.764.233-40.46l.059-40.348 8.509 33.604 10.22 40.354c1.049 4.137 1.776 6.79 1.878 6.855.092.059 2.535.106 5.506.107l5.339.002v51.7h-.38c-.283 0-7.047-3.657-26.93-14.562z" fill="#747ECA"/></g></svg>