<?xml version="1.0" encoding="UTF-8" standalone="no"?>
<svg width="540px" height="207px" viewBox="0 0 540 207" version="1.1" xmlns="http://www.w3.org/2000/svg" xmlns:xlink="http://www.w3.org/1999/xlink">
    <!-- Generator: Sketch 3.8.3 (29802) - http://www.bohemiancoding.com/sketch -->
    <title>mibclean</title>
    <desc>Created with Sketch.</desc>
    <defs></defs>
    <g id="Page-1" stroke="none" stroke-width="1" fill="none" fill-rule="evenodd">
        <g id="mibclean">
            <g id="Group">
                <path d="M94.276291,206.398655 C93.9672901,206.290632 0.287083,154.963556 0.151541366,154.828013 C0.131138539,154.807613 0.114444405,131.532003 0.114443471,103.104451 C0.11444207,61.853912 0.143949738,51.3912573 0.260587638,51.2856195 C0.340967927,51.2128204 1.87723292,50.3646586 3.67450977,49.4008164 C5.47178662,48.4369753 26.7677667,36.9469435 50.99891,23.8674141 L95.0555342,0.0864512341 L95.7557719,0.45431786 C96.1409027,0.656644435 117.594436,12.0992094 143.430291,25.8822397 L190.404572,50.9422952 L190.404572,103.085324 L190.404572,155.228351 L143.78041,180.499861 C118.137121,194.399183 96.8673993,205.917802 96.5143628,206.096794 C95.7792649,206.469484 94.84093,206.596041 94.276291,206.398655 L94.276291,206.398655 Z M105.828279,154.418853 C105.914834,154.363954 110.419367,136.796822 116.247832,113.783882 C121.894725,91.4878387 126.539588,73.2209423 126.569745,73.1907807 C126.599902,73.1606191 126.624585,91.3646295 126.624585,113.644138 C126.624585,150.314164 126.641963,154.169708 126.807978,154.335735 C126.971775,154.49952 128.031375,154.519127 136.719679,154.519127 C145.407984,154.519127 146.467584,154.49952 146.631381,154.335735 C146.797548,154.169568 146.814773,149.3406 146.814773,102.934947 C146.814773,56.5292925 146.797548,51.7003294 146.631381,51.534163 C146.466475,51.369264 144.886237,51.350947 130.963562,51.352554 C122.44713,51.3534877 115.411994,51.3969479 115.329937,51.4490234 C115.225252,51.515455 95.3472999,128.470096 95.3472999,128.808941 C95.3472999,128.828081 95.2962934,128.843743 95.2339524,128.843743 C95.1716114,128.843743 95.0157478,128.489248 94.887588,128.055976 C94.7594293,127.622704 90.1866447,110.357467 84.7258465,89.6887832 C79.2650472,69.0200994 74.7404529,51.9649341 74.6711924,51.7884158 L74.5452628,51.4674735 L63.7008164,51.4674735 C54.2721211,51.4674735 52.7389331,51.4915582 51.9568166,51.6519628 C49.5978008,52.1357734 47.5542749,53.4320033 45.9077802,55.488926 C44.5905233,57.1345419 43.7952587,59.0191652 43.5418403,61.0957424 C43.4507289,61.842337 43.4135638,75.4862884 43.4133303,108.27426 L43.4130012,154.402421 L53.391389,154.402421 L63.3697767,154.402421 L63.3697767,113.613573 C63.3697767,88.4636613 63.4115073,72.8247244 63.4786181,72.8247244 C63.5384815,72.8247244 63.6161845,72.9166306 63.6512933,73.0289604 C63.6864008,73.1412903 68.2884053,91.29933 73.8779701,113.38016 C79.4675338,135.46099 84.0920625,153.723552 84.1546988,153.963628 L84.2685855,154.400145 L89.7787655,154.431632 C103.682791,154.511074 105.685373,154.509487 105.828279,154.418853 L105.828279,154.418853 Z" id="path3027" fill="#9199D5"></path>
                <path d="M231.660572,108.161262 C231.660572,75.5401367 231.697988,61.9589616 231.789089,61.2124487 C232.268332,57.2853952 234.792514,53.8971397 238.336966,52.423116 C240.202773,51.6471872 238.758451,51.687717 262.879178,51.7344263 C282.317101,51.7720676 284.875513,51.797834 286.278789,51.9700878 C291.88753,52.6585686 295.38936,53.5916412 299.058128,55.3751805 C301.828221,56.7218392 303.768335,58.1007824 305.670298,60.0748133 C308.910531,63.4378112 310.768974,67.474432 311.567175,72.8830776 C311.823952,74.623012 311.862045,79.9932845 311.629262,81.6360493 C310.522081,89.4495097 307.26768,94.345985 300.76917,97.9757946 C299.969172,98.4226419 299.583201,98.7033276 299.606612,98.8212242 C299.626522,98.9214761 300.196224,99.2333223 300.925428,99.5431168 C308.794898,102.886388 313.27258,108.132017 314.806976,115.805398 C315.301764,118.279805 315.397277,119.47357 315.39262,123.125135 C315.388068,126.711764 315.27065,128.076773 314.750234,130.594338 C312.553786,141.21985 305.522746,148.530087 294.214817,151.945193 C292.412673,152.489453 289.498307,153.13436 287.620911,153.404337 C283.420115,154.008397 285.102938,153.974179 257.423159,154.01848 L231.660246,154.059724 L231.660246,108.161262 L231.660572,108.161262 Z M280.501828,135.726742 C285.248074,135.265764 288.398234,134.009525 290.562482,131.714706 C292.005637,130.184477 292.785526,128.640429 293.283991,126.32661 C293.641462,124.66728 293.732014,121.228039 293.465889,119.417995 C292.4392,112.434876 288.318745,109.284373 279.393118,108.657927 C278.405386,108.588604 272.420524,108.538677 265.017401,108.538003 C253.641583,108.536953 252.315018,108.555757 252.150532,108.720245 C251.985965,108.88482 251.96714,110.267125 251.96714,122.190271 C251.96714,129.497929 251.999012,135.55998 252.037981,135.661515 C252.102029,135.828416 253.414438,135.845829 265.721793,135.84311 C273.624256,135.841359 279.824336,135.792552 280.501828,135.726742 L280.501828,135.726742 Z M278.284408,91.4980528 C282.882122,91.1280986 285.950809,90.0113863 288.174473,87.8990106 C289.543507,86.5984941 290.397797,84.9716014 290.842063,82.8189445 C291.162364,81.2669656 291.105878,78.3307124 290.726769,76.8247286 C289.610894,72.3921222 286.482453,70.1802486 280.093356,69.3066857 C279.405746,69.2126706 274.984106,69.1566913 265.683198,69.1242481 C253.020823,69.0800818 252.256653,69.0889188 252.116092,69.2811492 C251.99781,69.4429041 251.96714,71.725748 251.96714,80.3662498 C251.96714,90.1028198 251.986432,91.2669405 252.150532,91.4310412 C252.31496,91.5954641 253.603864,91.6142456 264.608929,91.6125895 C271.436702,91.6115392 277.505417,91.5607346 278.284408,91.4980528 L278.284408,91.4980528 Z" id="path3025" fill="#9098D5"></path>
                <path d="M200.854605,57.6199245 C201.838486,54.6832196 203.747042,52.9324269 206.897295,52.0767154 L208.027222,51.7697918 L214.358538,51.7280833 L220.689854,51.6863737 L220.689854,102.869338 L220.689854,154.052302 L210.419701,154.052302 L200.149548,154.052302 L200.150715,107.515669 C200.151403,56.3846328 200.101838,59.8667878 200.854605,57.6199245 Z" id="path3025-path" fill="#9098D5"></path>
                <path d="M341.77263,149.725988 C338.502181,149.281465 335.664059,147.819719 333.361817,145.394061 C330.405204,142.278948 328.618279,138.428387 328.065814,133.981878 C327.888771,132.557046 327.916932,128.704653 328.118297,126.801383 C329.256475,116.043304 334.923009,102.833233 345.139349,87.1212449 C352.19037,76.2772758 359.742329,66.9904533 367.331307,59.8312566 C374.1544,53.3945686 379.998853,49.3959474 385.187369,47.614608 C387.212095,46.9194726 388.433006,46.6819695 390.390556,46.602433 C392.393574,46.521049 393.63848,46.6702125 394.949523,47.1486849 C397.746868,48.1695872 400.019933,51.0012342 400.664794,54.2684245 C400.854465,55.2294051 400.852983,58.7703182 400.662343,60.1037389 C399.397398,68.9516197 393.226005,80.0108232 385.303422,87.6271526 C382.708387,90.1218674 380.890267,91.2568303 379.328398,91.3570646 C378.17513,91.4310774 377.582927,91.195703 376.62261,90.281622 C375.602153,89.3103059 375.328302,88.7012088 375.326831,87.3995147 C375.325664,86.4841907 375.362007,86.3214252 375.730612,85.5846128 C376.250106,84.5462186 377.500579,83.1972001 379.12743,81.9201311 C381.884943,79.7554931 382.427732,79.3093787 383.744354,78.1254634 C386.900991,75.2869961 389.822744,71.540737 392.196177,67.2885971 C395.956524,60.5517113 396.506304,54.7836804 393.53174,53.276358 C391.760069,52.3785797 389.687575,52.7027419 386.440958,54.3854435 C377.140599,59.2057541 362.676757,74.2094772 352.501579,89.5916638 C344.469432,101.734161 338.911026,115.133392 337.45319,125.867733 C337.146486,128.126011 337.091599,131.136462 337.330671,132.587856 C337.793727,135.399065 338.870413,137.61568 340.721316,139.568246 C343.707643,142.718592 347.376795,143.541512 351.862997,142.067103 C353.099418,141.660755 355.785204,140.32993 357.236213,139.404647 C362.415836,136.101684 368.399648,130.364403 373.241453,124.058785 C376.714387,119.535903 379.65129,115.374542 380.86032,113.263454 C381.552913,112.054114 382.158701,111.321399 382.70156,111.036415 C382.874892,110.945423 383.333595,110.870975 383.720908,110.870975 C384.334258,110.870975 384.474259,110.914939 384.80623,111.211796 C385.17138,111.538314 385.187299,111.588514 385.185583,112.408035 C385.183249,113.520079 384.84144,114.572781 383.846764,116.53123 C382.864027,118.46615 381.843209,120.157784 379.938119,123.008429 C375.774458,129.238607 372.682477,133.117668 368.729857,137.069833 C361.741344,144.05754 354.534497,148.393389 347.958063,149.566742 C346.706446,149.79006 342.954654,149.886646 341.77263,149.725988 L341.77263,149.725988 Z M521.733727,149.496193 C519.4976,148.630874 517.437851,145.265018 516.701492,141.272963 C516.429578,139.798869 516.39152,134.874296 516.639253,133.220229 C517.399267,128.145805 519.350562,122.845962 522.497022,117.310198 C523.019656,116.39068 523.417017,115.608083 523.380033,115.571087 C523.293017,115.484071 522.355574,116.112137 521.03349,117.143249 C515.864708,121.174401 510.680615,127.799957 505.964059,136.402833 C504.622251,138.850257 504.267779,139.374619 503.298755,140.34558 C502.239984,141.406475 501.820437,141.605296 500.5232,141.660871 C499.593576,141.700715 499.457064,141.677759 498.98787,141.402799 C497.065367,140.276128 496.894556,137.974575 498.428228,133.862114 C500.269037,128.92608 505.514086,118.455973 510.553475,109.657816 C513.229165,104.986372 514.575734,103.006905 516.121439,101.472821 C517.21654,100.38594 517.722801,100.107214 518.724677,100.039574 C519.346279,99.9976085 519.523754,100.033668 519.96327,100.291245 C521.041274,100.922994 521.668629,101.961419 521.672807,103.120913 C521.677708,104.482343 521.263483,105.343059 518.831604,109.024451 C516.978833,111.829185 515.139822,114.881645 515.139822,115.152228 C515.139822,115.2367 515.199132,115.305814 515.27163,115.305814 C515.344128,115.305814 516.260016,114.469847 517.306953,113.448118 C521.020804,109.823652 525.214434,106.132091 528.210926,103.849581 C532.330939,100.711264 535.068168,99.3170521 537.109583,99.3170521 C538.193621,99.3170521 538.65209,99.4663895 539.215559,100.003032 C539.812173,100.571248 540.043089,101.372608 539.973228,102.632519 C539.876572,104.375932 539.304198,105.418499 536.741001,108.519874 C529.413982,117.385333 525.273558,124.888812 523.851923,131.878107 C523.320805,134.489293 523.186627,136.581405 523.435515,138.370804 C523.707931,140.329451 524.07286,141.401118 525.301555,143.850725 C526.490419,146.220913 526.67485,146.783694 526.524824,147.5834 C526.42392,148.121276 525.434507,149.209096 524.768091,149.514855 C524.115306,149.81437 522.53075,149.804625 521.733727,149.496193 L521.733727,149.496193 Z M491.039973,144.751067 C489.779872,144.583827 488.021704,143.711413 486.8969,142.695251 C483.996574,140.075055 483.098169,137.350068 483.416345,132.138292 C483.487944,130.965534 483.508298,129.967777 483.461569,129.921059 C483.359346,129.818836 483.367784,129.806745 482.065493,131.923389 C480.509658,134.452146 478.66403,136.860928 477.043843,138.477334 C475.530723,139.986918 474.553786,140.74 473.28408,141.375665 C471.884071,142.076556 471.276347,142.207302 469.44931,142.200755 C467.963896,142.195386 467.743729,142.166688 467.026441,141.884586 C464.647803,140.949068 462.797973,138.508214 462.190622,135.503716 C461.971751,134.420997 461.948643,131.060591 462.148433,129.368922 C462.825936,123.632387 465.436002,116.935197 469.582192,110.294547 C471.656821,106.971748 474.026822,104.024436 476.81839,101.295661 C480.70073,97.5006412 484.173302,95.3071419 487.83055,94.3396841 C488.674314,94.116481 489.343647,94.0318701 490.631501,93.9856135 C492.604958,93.914732 493.635475,94.081371 494.819005,94.6627586 C495.876107,95.1820397 497.179693,96.4513758 497.663044,97.4320576 C498.01447,98.1450875 498.045198,98.3021065 498.081109,99.5678947 C498.119774,100.931009 498.118618,100.937827 497.572164,102.558244 L497.024473,104.182365 L497.308175,104.638189 C497.795564,105.421245 497.983998,106.047685 497.983998,106.884881 C497.983998,108.182165 497.587873,109.140902 495.432168,113.06108 C493.623944,116.349366 491.382133,122.072024 490.346668,126.042792 C489.207183,130.412439 489.179337,133.038307 490.249183,135.23668 C490.874612,136.52185 491.485173,137.082904 493.19904,137.947324 C494.957255,138.834117 495.335232,139.108773 495.734204,139.789591 C496.104863,140.422069 496.235212,141.833305 496.000434,142.671863 C495.800154,143.387191 494.896708,144.281383 494.056714,144.595661 C493.445862,144.824207 492.109727,144.89304 491.039973,144.751067 L491.039973,144.751067 Z M472.833792,133.70323 C475.293727,133.045146 477.835439,130.371849 480.980942,125.134292 C482.587357,122.459466 483.764235,120.252853 486.53413,114.722282 C489.919955,107.961872 490.527831,106.948421 491.950411,105.6923 C492.78891,104.951907 492.787312,104.868044 491.912423,103.712354 C491.198425,102.769184 490.371176,102.19476 489.337905,101.924665 C488.609588,101.734282 488.515348,101.734442 487.531572,101.927734 C483.811197,102.658725 479.893694,106.27797 475.755032,112.807692 C471.523682,119.48363 469.27425,125.374742 469.27425,129.780393 C469.27425,132.000123 469.850943,133.190224 471.141551,133.63386 C471.911684,133.898573 472.078107,133.9054 472.833792,133.70323 L472.833792,133.70323 Z M392.131393,141.228335 C391.231599,140.937969 390.862644,140.726824 390.175338,140.108876 C389.394572,139.406888 388.687717,138.336901 388.411684,137.43915 C386.799526,132.195933 391.093968,119.369247 401.25332,99.0836395 C406.720963,88.1661525 411.677234,79.5085088 417.223771,71.1863152 C426.666768,57.0177807 433.7857,49.6200141 439.345599,48.198032 C440.573035,47.8841061 442.147356,47.8853677 443.080201,48.2010314 C444.342904,48.6283071 445.684618,50.0780641 446.171564,51.5413381 C446.408361,52.252915 446.424034,52.4683607 446.364724,54.1965637 C446.290511,56.3587426 446.095063,57.3551774 445.276671,59.7435798 C443.075147,66.1685796 438.225919,74.323637 430.142177,85.1955911 C423.012508,94.7843969 415.974815,102.378173 404.735673,112.609603 C402.649548,114.508686 400.728305,116.272982 400.466253,116.530261 C400.03891,116.949832 399.880633,117.292785 398.930713,119.857359 C397.074161,124.869696 395.952346,128.502704 395.664058,130.436434 C395.461479,131.79528 395.891145,132.652406 396.912803,132.927506 C398.5835,133.377386 401.702756,131.159021 404.530771,127.509744 C405.50248,126.255828 407.577529,123.162539 409.339129,120.341877 C411.270524,117.249324 411.977368,116.645719 413.573011,116.726293 C414.385824,116.767338 414.470097,116.796725 414.784563,117.148664 C415.100918,117.502716 415.122532,117.590036 415.122532,118.513719 C415.122532,119.69956 414.788741,120.720379 413.774166,122.637291 C412.027236,125.937932 407.907995,131.699675 404.914828,135.029177 C401.722211,138.580549 398.299099,140.87161 395.509258,141.324255 C394.366961,141.509585 392.871358,141.467116 392.131393,141.228335 L392.131393,141.228335 Z M407.567352,102.967976 C413.50161,97.6256127 419.637105,90.7203921 425.053094,83.2885753 C430.410169,75.937608 436.066888,66.4655166 438.004959,61.6008694 C438.533405,60.2744172 438.928666,58.7614439 438.929612,58.0613789 C438.931012,57.0507771 438.161544,56.2827925 437.296727,56.4315907 C434.443749,56.9224655 429.993108,61.8040539 423.340604,71.7390595 C419.764642,77.0794798 416.703622,82.2160597 413.200263,88.7551329 C410.886677,93.0735037 405.552617,104.003075 405.552617,104.425299 C405.552617,104.504244 405.605835,104.568835 405.670875,104.568835 C405.735915,104.568835 406.58933,103.848449 407.567352,102.967976 L407.567352,102.967976 Z M427.043986,141.204036 C423.259131,140.623423 420.172098,138.101435 419.05411,134.67656 C418.596482,133.274638 418.467043,131.935876 418.538514,129.343421 C418.65634,125.0691 419.533213,121.669528 421.602427,117.46488 C423.611071,113.383311 426.59846,109.418656 430.879959,105.152367 C435.698575,100.350873 439.921498,97.521031 443.778921,96.5085958 C445.122351,96.1559922 447.405966,96.0691791 448.329019,96.3356195 C449.379399,96.6388108 450.078388,97.068339 450.831436,97.8733498 C451.665734,98.7652227 452.001101,99.575064 452.087802,100.907265 C452.28835,103.988771 450.664231,108.049445 447.366251,112.712212 C446.278572,114.250007 445.269926,115.43342 443.624052,117.102834 C439.29314,121.495705 434.283919,124.530232 427.645654,126.782372 C426.059674,127.320434 426.097137,127.280451 426.094522,128.437792 C426.091488,129.797549 426.67726,131.237774 427.6297,132.211945 C430.10944,134.748288 434.975941,134.797911 439.880429,132.336856 C444.231637,130.153433 448.401272,126.668711 453.416317,121.024422 C456.002901,118.113289 456.634131,117.639939 457.929629,117.639939 C458.641094,117.639939 458.686971,117.658274 459.208706,118.15123 C459.725412,118.639424 459.751939,118.696096 459.796031,119.405822 C459.857325,120.392294 459.558965,121.172744 458.536023,122.701795 C456.492496,125.75636 451.270905,130.943313 447.041702,134.11986 C442.213797,137.746087 437.035947,140.259427 432.775736,141.044592 C431.554323,141.269695 428.098673,141.365826 427.043986,141.204036 L427.043986,141.204036 Z M429.611793,120.844332 C432.889139,119.532309 435.201919,118.159563 437.551532,116.131732 C439.795362,114.195202 441.601812,112.145461 443.264328,109.649544 C445.098543,106.895848 445.544827,105.360374 444.828636,104.267333 C444.220199,103.338738 442.104583,103.906373 439.694283,105.644914 C435.320598,108.799639 431.872149,113.124316 428.876894,119.210946 C428.372722,120.235464 427.960224,121.141397 427.960224,121.22413 C427.960224,121.463856 428.204677,121.407639 429.611793,120.844332 L429.611793,120.844332 Z" id="path3023" fill="#1F2EA8"></path>
                <path d="M67.8046157,191.77447 C53.2017412,183.765244 32.0238679,172.149806 20.7426738,165.962389 L0.231413166,154.712544 L0.260720216,103.062143 L0.290027383,51.4117451 L2.68250631,50.1228525 C3.99836972,49.4139622 8.1472783,47.1751574 11.9023032,45.1477299 C15.657328,43.1203036 23.377449,38.952512 29.0581277,35.8859713 C34.7388063,32.8194307 44.9797832,27.2911495 51.8158541,23.6009013 C58.6519249,19.910652 66.5558584,15.6449962 69.3801506,14.1216641 C72.2044428,12.598333 79.0998471,8.87655431 84.703272,5.85104507 C90.3066969,2.8255357 94.9413954,0.350118868 95.0026021,0.350118868 C95.0730541,0.350118868 95.1105064,23.7635222 95.1046734,64.1592825 C95.0967724,118.843193 95.0722197,127.90169 94.9329459,127.501621 C94.8435629,127.244867 90.2780175,110.045278 84.7872901,89.2803112 C77.6176819,62.1661199 74.7476234,51.4837611 74.6035868,51.3765675 C74.4432965,51.2572773 72.1881611,51.2338859 63.3720291,51.2600689 L52.3410324,51.2928307 L51.2998862,51.6188392 C48.8655156,52.3811017 46.9696697,53.7343146 45.4622621,55.7856062 C44.358447,57.2876862 43.5441184,59.3829912 43.3077928,61.329155 C43.2175345,62.0724375 43.18015,75.8115838 43.1799178,108.324277 C43.1795676,149.936911 43.196881,154.286333 43.3629844,154.452441 C43.5268319,154.616285 44.5935507,154.635646 53.3705487,154.634048 C59.358012,154.63288 63.263085,154.589046 63.3697767,154.521601 C63.5246494,154.423696 63.5515654,149.758292 63.6031893,114.06232 L63.6615424,73.7137054 L72.1708664,107.318275 C76.850994,125.80079 81.4501904,143.960067 82.3913018,147.672226 C83.4400257,151.808857 84.1668374,154.462384 84.2688375,154.526935 C84.3614323,154.585533 86.8039035,154.633056 89.7745746,154.634048 L95.1138873,154.635833 L95.1138873,180.486276 L95.1138873,206.336719 L94.7345919,206.336708 C94.4505591,206.336708 87.6868882,202.679284 67.8046157,191.77447 L67.8046157,191.77447 Z" id="path3025-path" fill="#747ECA"></path>
            </g>
        </g>
    </g>
</svg>
