<?xml version="1.0" encoding="UTF-8" standalone="no"?>
<svg width="304px" height="303px" viewBox="0 0 304 303" version="1.1" xmlns="http://www.w3.org/2000/svg" xmlns:xlink="http://www.w3.org/1999/xlink">
    <!-- Generator: Sketch 3.8.3 (29802) - http://www.bohemiancoding.com/sketch -->
    <title>Artboard 1</title>
    <desc>Created with Sketch.</desc>
    <defs>
        <linearGradient x1="-13.1058061%" y1="-11.7622361%" x2="156.933781%" y2="154.672505%" id="linearGradient-1">
            <stop stop-color="#6972B5" offset="0%"></stop>
            <stop stop-color="#5864AC" offset="32%"></stop>
            <stop stop-color="#2C4193" offset="95%"></stop>
            <stop stop-color="#283E91" offset="100%"></stop>
        </linearGradient>
        <linearGradient x1="215.087606%" y1="20793%" x2="10949.1898%" y2="48541%" id="linearGradient-2">
            <stop stop-color="#6972B5" offset="0%"></stop>
            <stop stop-color="#5864AC" offset="32%"></stop>
            <stop stop-color="#2C4193" offset="95%"></stop>
            <stop stop-color="#283E91" offset="100%"></stop>
        </linearGradient>
        <linearGradient x1="3296%" y1="7482.75871%" x2="31644%" y2="19023.2478%" id="linearGradient-3">
            <stop stop-color="#6972B5" offset="0%"></stop>
            <stop stop-color="#5864AC" offset="32%"></stop>
            <stop stop-color="#2C4193" offset="95%"></stop>
            <stop stop-color="#283E91" offset="100%"></stop>
        </linearGradient>
        <linearGradient x1="4941%" y1="5729.75845%" x2="33290%" y2="17256.266%" id="linearGradient-4">
            <stop stop-color="#6972B5" offset="0%"></stop>
            <stop stop-color="#5864AC" offset="32%"></stop>
            <stop stop-color="#2C4193" offset="95%"></stop>
            <stop stop-color="#283E91" offset="100%"></stop>
        </linearGradient>
        <linearGradient x1="8290%" y1="8946.2471%" x2="36638%" y2="33025.6424%" id="linearGradient-5">
            <stop stop-color="#6972B5" offset="0%"></stop>
            <stop stop-color="#5864AC" offset="32%"></stop>
            <stop stop-color="#2C4193" offset="95%"></stop>
            <stop stop-color="#283E91" offset="100%"></stop>
        </linearGradient>
        <linearGradient x1="10726%" y1="2345.11665%" x2="39075%" y2="10549.0574%" id="linearGradient-6">
            <stop stop-color="#6972B5" offset="0%"></stop>
            <stop stop-color="#5864AC" offset="32%"></stop>
            <stop stop-color="#2C4193" offset="95%"></stop>
            <stop stop-color="#283E91" offset="100%"></stop>
        </linearGradient>
        <linearGradient x1="12776%" y1="279.96988%" x2="41124%" y2="1405.64182%" id="linearGradient-7">
            <stop stop-color="#6972B5" offset="0%"></stop>
            <stop stop-color="#5864AC" offset="32%"></stop>
            <stop stop-color="#2C4193" offset="95%"></stop>
            <stop stop-color="#283E91" offset="100%"></stop>
        </linearGradient>
    </defs>
    <g id="Page-1" stroke="none" stroke-width="1" fill="none" fill-rule="evenodd">
        <g id="Artboard-1">
            <g id="my_yeti">
                <path d="M151.94,0.1 C105.901543,0.1 68.58,37.4215433 68.58,83.46 C68.58,129.498457 105.901543,166.82 151.94,166.82 C197.978457,166.82 235.3,129.498457 235.3,83.46 C235.3,37.4215433 197.978457,0.1 151.94,0.1 L151.94,0.1 Z M195.26,105.68 L157.58,105.41 L129.8,138.62 C129.360527,139.207878 128.634348,139.507798 127.908119,139.401368 C127.181889,139.294937 126.572306,138.799259 126.32,138.11 L122,128.87 C121.619404,128.12121 121.747237,127.214396 122.32,126.6 L140.73,105.47 L140.73,105.37 L112.73,105.85 C111.46,105.85 111.03,105.14 110.46,103.91 L106.65,95.69 C105.89,94.05 106.84,92.61 108.51,92.69 L191.07,92.63 C191.901086,92.6225796 192.669184,93.0719168 193.07,93.8 L197.16,102.63 C197.565055,103.277695 197.565774,104.099555 197.161851,104.747957 C196.757929,105.396358 196.019927,105.758032 195.26,105.68 L195.26,105.68 Z M195.34,74.22 L112.78,74.28 C111.948914,74.2874204 111.180816,73.8380832 110.78,73.11 L106.69,64.28 C106.297983,63.6184801 106.319939,62.7907903 106.746476,62.1509841 C107.173014,61.5111779 107.92859,61.1725685 108.69,61.28 L146.37,61.55 L174.16,28.34 C174.599473,27.7521223 175.325652,27.4522023 176.051881,27.5586325 C176.778111,27.6650626 177.387694,28.160741 177.64,28.85 L181.92,38.09 C182.300596,38.83879 182.172763,39.7456043 181.6,40.36 L163.1,61.46 L163.1,61.56 L191.1,61.08 C192.37,61.08 192.8,61.79 193.37,63.02 L197.18,71.24 C198,72.88 197,74.32 195.34,74.22 L195.34,74.22 Z" id="Shape" fill="url(#linearGradient-1)"></path>
                <path d="M0.53,225.93 C0.53,224.742588 1.49258779,223.78 2.68,223.78 L6.86,223.78 C7.69795218,223.722948 8.47572929,224.21716 8.78,225 L10.36,229.29 C14.252212,225.047771 19.7427664,222.628881 25.5,222.62 C31.2390554,222.447535 36.7088953,225.053994 40.19,229.62 C42.11,227.62 47.99,222.62 56.12,222.62 C70.58,222.62 75.9,233.36 75.9,245.22 L75.9,266.8 C75.9,267.987412 74.9374122,268.95 73.75,268.95 L64.6,268.95 C63.4125878,268.95 62.45,267.987412 62.45,266.8 L62.45,244.47 C62.45,238.59 59.62,234.86 53.97,234.86 C50.2164458,234.779406 46.6650853,236.556958 44.48,239.61 C44.48,239.61 44.59,241.87 44.59,243.9 L44.59,266.84 C44.5535926,268.012001 43.6120006,268.953593 42.44,268.99 L34,268.99 C32.8125878,268.99 31.85,268.027412 31.85,266.84 L31.85,244.47 C31.85,238.59 29.25,234.86 23.49,234.86 C17.73,234.86 15.13,238.93 14,241.98 L14,266.84 C13.9635926,268.012001 13.0220006,268.953593 11.85,268.99 L2.68,268.99 C1.50799942,268.953593 0.566407449,268.012001 0.53,266.84 L0.53,225.93 L0.53,225.93 Z" id="Shape" fill="url(#linearGradient-2)"></path>
                <path d="M82.13,226.73 C81.7837552,226.085267 81.8172955,225.302905 82.2174488,224.690171 C82.617602,224.077436 83.3204636,223.732182 84.05,223.79 L94.22,223.79 C95.0564045,223.760904 95.8224799,224.255662 96.14,225.03 L107.55,250.57 L107.66,250.57 L119,225 C119.57,223.87 120.36,223.76 121.71,223.76 L130.71,223.76 C132.52,223.76 133.42,225.23 132.63,226.7 L98.05,301.51 C97.7150484,302.287007 96.974126,302.811827 96.13,302.87 L86.41,302.87 C85.6465999,302.956722 84.9010048,302.598465 84.4916955,301.948261 C84.0823863,301.298056 84.0817273,300.470856 84.49,299.82 L100.49,265.82 L82.13,226.73 Z" id="Shape" fill="url(#linearGradient-3)"></path>
                <path d="M141.49,226.73 C141.143755,226.085267 141.177296,225.302905 141.577449,224.690171 C141.977602,224.077436 142.680464,223.732182 143.41,223.79 L153.58,223.79 C154.416405,223.760904 155.18248,224.255662 155.5,225.03 L166.91,250.57 L167,250.57 L178.33,225 C178.9,223.87 179.69,223.76 181.04,223.76 L190.04,223.76 C191.85,223.76 192.75,225.23 191.96,226.7 L157.38,301.51 C157.045048,302.287007 156.304126,302.811827 155.46,302.87 L145.74,302.87 C144.9766,302.956722 144.231005,302.598465 143.821696,301.948261 C143.412386,301.298056 143.411727,300.470856 143.82,299.82 L159.82,265.82 L141.49,226.73 Z" id="Shape" fill="url(#linearGradient-4)"></path>
                <path d="M219.35,222.66 C224.964881,222.548345 230.384582,224.72068 234.367922,228.679513 C238.351261,232.638345 240.557002,238.044537 240.48,243.66 C240.459688,244.680133 240.382904,245.698358 240.25,246.71 C240.114905,247.797915 239.196208,248.618333 238.1,248.63 L209.18,248.63 C209.665037,254.233109 214.376092,258.521823 220,258.48 C223.157606,258.444543 226.231241,257.458331 228.82,255.65 C229.95,254.97 230.97,254.75 231.76,255.65 L236.39,260.96 C236.831741,261.329029 237.077739,261.881785 237.056218,262.456984 C237.034697,263.032184 236.748082,263.565012 236.28,263.9 C231.663242,268.04053 225.639628,270.261827 219.44,270.11 C205.88,270.11 196.27,259.37 196.27,246.38 C196.3,233.62 205.91,222.66 219.35,222.66 L219.35,222.66 Z M227.26,240.74 C226.87284,236.449766 223.316933,233.13954 219.01,233.06 C214.568358,233.062987 210.808853,236.340285 210.2,240.74 L227.26,240.74 L227.26,240.74 Z" id="Shape" fill="url(#linearGradient-5)"></path>
                <path d="M252.35,235.65 L248.51,235.65 C247.374578,235.585769 246.492092,234.637096 246.51,233.5 L246.51,225.93 C246.482881,225.377773 246.679973,224.838006 247.05655,224.433186 C247.433127,224.028366 247.957257,223.79282 248.51,223.78 L252.35,223.78 L252.35,211.24 C252.386407,210.067999 253.327999,209.126407 254.5,209.09 L263.77,208.98 C264.905422,209.044231 265.787908,209.992904 265.77,211.13 L265.77,223.79 L275.71,223.79 C276.286039,223.770265 276.844442,223.990438 277.252002,224.397998 C277.659562,224.805558 277.879735,225.363961 277.86,225.94 L277.86,233.51 C277.86,234.697412 276.897412,235.66 275.71,235.66 L265.8,235.66 L265.8,253.74 C265.8,256.9 267.5,257.36 269.3,257.36 C271.200113,257.23867 273.069466,256.820258 274.84,256.12 C275.330058,255.883774 275.901815,255.887453 276.388793,256.129964 C276.875771,256.372475 277.22323,256.826559 277.33,257.36 L279.59,264.48 C279.81751,265.001329 279.812275,265.594869 279.575607,266.112104 C279.338938,266.62934 278.893227,267.021333 278.35,267.19 C277.78,267.53 270.44,270.13 264.9,270.13 C256.2,270.13 252.36,264.71 252.36,255.55 L252.36,235.65 L252.35,235.65 Z" id="Shape" fill="url(#linearGradient-6)"></path>
                <path d="M287.95,199.94 C287.928683,197.885618 288.727128,195.907477 290.168569,194.443514 C291.610009,192.979551 293.575535,192.150534 295.63,192.14 C299.937821,192.14 303.43,195.632179 303.43,199.94 C303.43,204.247821 299.937821,207.74 295.63,207.74 C293.575535,207.729466 291.610009,206.900449 290.168569,205.436486 C288.727128,203.972523 287.928683,201.994382 287.95,199.94 L287.95,199.94 Z M288.95,225.94 C288.95,224.752588 289.912588,223.79 291.1,223.79 L300.48,223.79 C301.667412,223.79 302.63,224.752588 302.63,225.94 L302.63,266.85 C302.593593,268.022001 301.652001,268.963593 300.48,269 L291.1,269 C289.927999,268.963593 288.986407,268.022001 288.95,266.85 L288.95,225.93 L288.95,225.94 Z" id="Shape" fill="url(#linearGradient-7)"></path>
            </g>
        </g>
    </g>
</svg>