<?xml version="1.0" encoding="UTF-8" standalone="no"?>
<svg width="409px" height="205px" viewBox="0 0 409 205" version="1.1" xmlns="http://www.w3.org/2000/svg" xmlns:xlink="http://www.w3.org/1999/xlink">
    <!-- Generator: Sketch 3.8.3 (29802) - http://www.bohemiancoding.com/sketch -->
    <title>oureparer</title>
    <desc>Created with Sketch.</desc>
    <defs>
        <polygon id="path-1" points="0 204.061 408.371 204.061 408.371 0 0 0"></polygon>
    </defs>
    <g id="Page-1" stroke="none" stroke-width="1" fill="none" fill-rule="evenodd">
        <g id="oureparer">
            <g id="Page-1">
                <path d="M100.272,86.85 L69.117,104.833 L37.963,86.85 L37.963,50.877 L69.117,32.89 L100.272,50.877 L100.272,86.85 L100.272,86.85 Z M69.117,0 C30.945,0 0,30.949 0,69.117 C0,69.932 0.026,70.767 0.062,71.608 C0.323,78.867 1.692,85.84 4.019,92.364 C18.764,140.834 69.117,204.061 69.117,204.061 C69.117,204.061 119.463,140.838 134.209,92.371 C136.545,85.847 137.912,78.867 138.166,71.608 C138.206,70.767 138.233,69.935 138.233,69.117 C138.233,30.949 107.288,0 69.117,0 L69.117,0 Z" id="Fill-1" fill="#6972B5"></path>
                <path d="M155.3716,195.2739 C154.5776,195.2739 153.9206,195.5739 153.4066,196.1689 C152.8896,196.7579 152.6296,197.4619 152.6296,198.2539 C152.6296,199.1279 152.8896,199.8419 153.4066,200.3969 C153.9206,200.9619 154.5776,201.2359 155.3716,201.2359 C156.1676,201.2359 156.8336,200.9619 157.3706,200.3969 C157.9086,199.8419 158.1746,199.1279 158.1746,198.2539 C158.1746,197.4619 157.9086,196.7579 157.3706,196.1689 C156.8336,195.5739 156.1676,195.2739 155.3716,195.2739" id="Fill-3" fill="#6972B5"></path>
                <path d="M177.81,196.7319 C176.58,197.5939 175.206,198.0109 173.697,198.0109 C171.946,198.0109 170.423,197.5299 169.134,196.5569 C167.845,195.5819 166.768,194.2549 165.915,192.5849 C165.06,190.9179 164.415,188.9769 163.977,186.7709 C163.54,184.5759 163.322,182.2129 163.322,179.7119 C163.322,177.2049 163.531,174.8419 163.947,172.6129 C164.366,170.3919 165,168.4399 165.857,166.7729 C166.709,165.0979 167.784,163.7919 169.076,162.8379 C170.369,161.8849 171.886,161.4069 173.634,161.4069 C174.986,161.4069 176.268,161.7409 177.481,162.4239 C178.693,163.0959 179.756,164.1289 180.673,165.5229 L183.352,162.7779 C182.204,160.9929 180.761,159.6779 179.035,158.8389 C177.305,158.0029 175.444,157.5929 173.458,157.5929 C171.191,157.5929 169.163,158.1479 167.376,159.2609 C165.587,160.3699 164.064,161.9079 162.817,163.8819 C161.562,165.8499 160.609,168.1769 159.954,170.8849 C159.296,173.5889 158.968,176.5289 158.968,179.7119 C158.968,182.8479 159.296,185.7719 159.954,188.4759 C160.609,191.1799 161.552,193.5189 162.787,195.4789 C164.015,197.4499 165.526,198.9999 167.315,200.1379 C169.106,201.2619 171.149,201.8289 173.458,201.8289 C175.606,201.8289 177.533,201.3309 179.242,200.3429 C180.951,199.3479 182.363,197.9169 183.476,196.0479 L180.85,193.3599 C180.054,194.7529 179.04,195.8809 177.81,196.7319" id="Fill-5" fill="#6972B5"></path>
                <path d="M209.8315,186.8051 C209.4295,189.0311 208.8285,190.9781 208.0385,192.6501 C207.2475,194.3171 206.2525,195.6301 205.0575,196.5831 C203.8675,197.5361 202.4735,198.0111 200.8865,198.0111 C199.2545,198.0111 197.8325,197.5361 196.6235,196.5831 C195.4115,195.6301 194.4055,194.3171 193.6115,192.6501 C192.8165,190.9781 192.2205,189.0311 191.8235,186.8051 C191.4245,184.5791 191.2265,182.1911 191.2265,179.6541 C191.2265,177.1101 191.4245,174.7211 191.8235,172.4991 C192.2205,170.2741 192.8165,168.3411 193.6115,166.7111 C194.4055,165.0781 195.4115,163.7911 196.6235,162.8381 C197.8325,161.8851 199.2545,161.4071 200.8865,161.4071 C202.4355,161.4071 203.8085,161.8851 204.9985,162.8381 C206.1925,163.7911 207.1955,165.0781 208.0105,166.7111 C208.8245,168.3411 209.4295,170.2741 209.8315,172.4991 C210.2225,174.7211 210.4245,177.1101 210.4245,179.6541 C210.4245,182.1911 210.2225,184.5791 209.8315,186.8051 M211.0765,163.7031 C209.8845,161.7751 208.4375,160.2711 206.7265,159.1971 C205.0195,158.1291 203.0695,157.5931 200.8865,157.5931 C198.6205,157.5931 196.6235,158.1291 194.8915,159.1971 C193.1635,160.2711 191.7015,161.7751 190.5115,163.7031 C189.3205,165.6291 188.4125,167.9531 187.7975,170.6721 C187.1785,173.4031 186.8735,176.3921 186.8735,179.6541 C186.8735,182.9541 187.1895,185.9621 187.8285,188.6771 C188.4605,191.4111 189.3855,193.7431 190.5985,195.6881 C191.8135,197.6361 193.2815,199.1471 195.0115,200.2181 C196.7425,201.2921 198.6965,201.8281 200.8865,201.8281 C203.0695,201.8281 205.0195,201.2921 206.7265,200.2181 C208.4375,199.1471 209.8845,197.6361 211.0765,195.6881 C212.2725,193.7431 213.1855,191.4111 213.8265,188.6771 C214.4645,185.9621 214.7715,182.9541 214.7715,179.6541 C214.7715,176.3921 214.4645,173.4031 213.8265,170.6721 C213.1855,167.9531 212.2725,165.6291 211.0765,163.7031" id="Fill-7" fill="#6972B5"></path>
                <polygon id="Fill-9" fill="#6972B5" points="237.4936 194.2553 237.2546 194.2553 227.1796 158.6043 220.9766 158.6043 220.9766 200.8173 224.9196 200.8173 224.9196 164.1453 225.0906 164.1453 235.3816 200.8173 239.2516 200.8173 249.6006 164.1453 249.7746 164.1453 249.7746 200.8173 253.8946 200.8173 253.8946 158.6043 247.4546 158.6043"></polygon>
                <path d="M168.9082,35.2118 C169.2202,33.3278 169.6942,31.6988 170.3362,30.3148 C170.9822,28.9358 171.7902,27.8498 172.7682,27.0618 C173.7482,26.2778 174.8782,25.8828 176.1632,25.8828 C177.4512,25.8828 178.5692,26.2778 179.5222,27.0618 C180.4762,27.8498 181.2712,28.9358 181.9212,30.3148 C182.5602,31.6988 183.0512,33.3278 183.3832,35.2118 C183.7172,37.0948 183.8822,39.1308 183.8822,41.3198 C183.8822,43.5108 183.7172,45.5658 183.3832,47.4648 C183.0512,49.3748 182.5602,51.0208 181.9212,52.3998 C181.2712,53.7818 180.4762,54.8778 179.5222,55.6848 C178.5692,56.5008 177.4512,56.9018 176.1632,56.9018 C174.8782,56.9018 173.7482,56.5008 172.7682,55.6848 C171.7902,54.8778 170.9822,53.7818 170.3362,52.3998 C169.6942,51.0208 169.2202,49.3748 168.9082,47.4648 C168.6002,45.5658 168.4432,43.5108 168.4432,41.3198 C168.4432,39.1308 168.6002,37.0948 168.9082,35.2118 M161.9402,60.7618 C163.6092,63.0938 165.6442,64.9108 168.0502,66.1948 C170.4572,67.4818 173.1632,68.1198 176.1632,68.1198 C179.1632,68.1198 181.8682,67.4818 184.2752,66.1948 C186.6812,64.9108 188.7172,63.0938 190.3882,60.7618 C192.0542,58.4298 193.3422,55.6028 194.2442,52.2958 C195.1522,48.9778 195.6052,45.3288 195.6052,41.3198 C195.6052,37.3188 195.1522,33.6868 194.2442,30.4248 C193.3422,27.1608 192.0542,24.3718 190.3882,22.0628 C188.7172,19.7518 186.6812,17.9608 184.2752,16.6978 C181.8682,15.4358 179.1632,14.8068 176.1632,14.8068 C173.1162,14.8068 170.3842,15.4358 167.9782,16.6978 C165.5742,17.9608 163.5332,19.7518 161.8682,22.0628 C160.1992,24.3718 158.9242,27.1608 158.0432,30.4248 C157.1642,33.6868 156.7252,37.3188 156.7252,41.3198 C156.7252,45.3288 157.1742,48.9778 158.0812,52.2958 C158.9872,55.6028 160.2702,58.4298 161.9402,60.7618" id="Fill-11" fill="#6972B5"></path>
                <path d="M201.6797,16.165 L201.6797,48.044 C201.6797,50.854 201.9797,53.469 202.5747,55.901 C203.1667,58.333 204.1467,60.455 205.5027,62.264 C206.8617,64.074 208.6087,65.505 210.7587,66.552 C212.9037,67.598 215.5237,68.12 218.6157,68.12 C221.7187,68.12 224.3607,67.598 226.5597,66.552 C228.7477,65.505 230.5317,64.074 231.9107,62.264 C233.2937,60.455 234.3037,58.333 234.9487,55.901 C235.5947,53.469 235.9097,50.854 235.9097,48.044 L235.9097,16.165 L224.4787,16.165 L224.4787,47.041 C224.4787,48.465 224.3907,49.806 224.2277,51.044 C224.0647,52.282 223.7617,53.341 223.3357,54.219 C222.9027,55.103 222.3377,55.808 221.6197,56.332 C220.9047,56.854 219.9747,57.116 218.8397,57.116 C217.6847,57.116 216.7627,56.854 216.0527,56.332 C215.3347,55.808 214.7607,55.103 214.3317,54.219 C213.8987,53.341 213.6017,52.282 213.4387,51.044 C213.2717,49.806 213.1847,48.465 213.1847,47.041 L213.1847,16.165 L201.6797,16.165 Z" id="Fill-13" fill="#6972B5"></path>
                <mask id="mask-2" fill="white">
                    <use xlink:href="#path-1"></use>
                </mask>
                <g id="Clip-16"></g>
                <polygon id="Fill-15" fill="#6972B5" mask="url(#mask-2)" points="201.655 10.432 235.75 10.432 235.75 4.161 201.655 4.161"></polygon>
                <path d="M179.3442,110.7348 C178.1312,111.7638 176.7122,112.2728 175.0912,112.2728 L171.7322,112.2728 L171.7322,99.4848 L175.3072,99.4848 C175.9722,99.4848 176.6542,99.5658 177.3412,99.7338 C178.0342,99.8968 178.6662,100.2208 179.2342,100.6998 C179.8092,101.1798 180.2732,101.8178 180.6312,102.6238 C180.9892,103.4358 181.1652,104.4878 181.1652,105.7708 C181.1652,108.0578 180.5562,109.7168 179.3442,110.7348 M190.0722,113.9218 C190.7612,112.8768 191.3202,111.6118 191.7492,110.1348 C192.1722,108.6538 192.3852,106.9868 192.3852,105.1258 C192.3852,100.0768 191.0332,96.2778 188.3242,93.7308 C185.6142,91.1768 181.8102,89.9048 176.9132,89.9048 L160.7242,89.9048 L160.7242,140.5078 L171.7322,140.5078 L171.7322,120.3538 L175.0772,120.3538 L181.8472,140.5078 L193.8892,140.5078 L185.2632,117.9238 C186.0742,117.6388 186.9012,117.1608 187.7582,116.4918 C188.6102,115.8278 189.3812,114.9688 190.0722,113.9218" id="Fill-17" fill="#6972B5" mask="url(#mask-2)"></path>
                <polygon id="Fill-18" fill="#6972B5" mask="url(#mask-2)" points="224.6919 130.2201 210.3209 130.2201 210.3209 119.3561 222.7619 119.3561 222.7619 109.9181 210.3209 109.9181 210.3209 99.9841 223.8299 99.9841 223.8299 89.9051 199.3899 89.9051 199.3899 140.5081 224.6919 140.5081"></polygon>
                <path d="M250.2759,111.0239 C249.1819,112.1929 247.8529,112.7739 246.2729,112.7739 L242.6309,112.7739 L242.6309,99.5529 L246.2729,99.5529 C247.8529,99.5529 249.1819,100.0539 250.2759,101.0509 C251.3779,102.0569 251.9209,103.7019 251.9209,105.9879 C251.9209,108.1789 251.3779,109.8659 250.2759,111.0239 M262.6449,105.7709 C262.6449,102.7669 262.1739,100.2479 261.2549,98.2009 C260.3209,96.1459 259.0979,94.5149 257.6019,93.2999 C256.1019,92.0829 254.4379,91.2189 252.5999,90.6909 C250.7619,90.1649 248.9469,89.9009 247.1309,89.9009 L231.4099,89.9009 L231.4099,140.5079 L242.6309,140.5079 L242.6309,122.0709 L247.5649,122.0709 C249.4179,122.0709 251.2529,121.7449 253.0669,121.1019 C254.8749,120.4569 256.4929,119.4689 257.9239,118.1399 C259.3559,116.8069 260.5029,115.1139 261.3579,113.0589 C262.2149,111.0159 262.6449,108.5819 262.6449,105.7709" id="Fill-19" fill="#6972B5" mask="url(#mask-2)"></path>
                <path d="M276.0044,122.4242 L280.2924,100.9102 L280.5734,100.9102 L284.6514,122.4242 L276.0044,122.4242 Z M273.5024,89.9042 L261.2134,140.5082 L272.6444,140.5082 L274.7214,131.2872 L286.0794,131.2872 L288.1604,140.5082 L300.0894,140.5082 L287.8724,89.9042 L273.5024,89.9042 Z" id="Fill-20" fill="#6972B5" mask="url(#mask-2)"></path>
                <path d="M323.1411,110.7348 C321.9251,111.7638 320.5091,112.2728 318.8911,112.2728 L315.5311,112.2728 L315.5311,99.4848 L319.1041,99.4848 C319.7721,99.4848 320.4561,99.5658 321.1431,99.7338 C321.8341,99.8968 322.4691,100.2208 323.0351,100.6998 C323.6121,101.1798 324.0751,101.8178 324.4321,102.6238 C324.7861,103.4358 324.9631,104.4878 324.9631,105.7708 C324.9631,108.0578 324.3641,109.7168 323.1411,110.7348 M331.5521,116.4918 C332.4111,115.8278 333.1781,114.9688 333.8701,113.9218 C334.5641,112.8768 335.1151,111.6118 335.5511,110.1348 C335.9731,108.6538 336.1861,106.9868 336.1861,105.1258 C336.1861,100.0768 334.8301,96.2778 332.1251,93.7308 C329.4141,91.1768 325.6101,89.9048 320.7101,89.9048 L304.5251,89.9048 L304.5251,140.5078 L315.5311,140.5078 L315.5311,120.3538 L318.8761,120.3538 L325.6471,140.5078 L337.6861,140.5078 L329.0571,117.9238 C329.8731,117.6388 330.6981,117.1608 331.5521,116.4918" id="Fill-21" fill="#6972B5" mask="url(#mask-2)"></path>
                <polygon id="Fill-22" fill="#6972B5" mask="url(#mask-2)" points="354.1255 119.3559 366.5665 119.3559 366.5665 109.9179 354.1255 109.9179 354.1255 99.9839 367.6335 99.9839 367.6335 89.9049 343.1875 89.9049 343.1875 140.5079 368.4845 140.5079 368.4845 130.2199 354.1255 130.2199"></polygon>
                <path d="M393.8257,110.7348 C392.6147,111.7638 391.1937,112.2728 389.5767,112.2728 L386.2157,112.2728 L386.2157,99.4848 L389.7897,99.4848 C390.4577,99.4848 391.1407,99.5658 391.8247,99.7338 C392.5197,99.8968 393.1537,100.2208 393.7187,100.6998 C394.2967,101.1798 394.7567,101.8178 395.1137,102.6238 C395.4707,103.4358 395.6527,104.4878 395.6527,105.7708 C395.6527,108.0578 395.0377,109.7168 393.8257,110.7348 L393.8257,110.7348 Z M399.7427,117.9238 C400.5587,117.6388 401.3837,117.1608 402.2377,116.4918 C403.0967,115.8278 403.8627,114.9688 404.5547,113.9218 C405.2497,112.8768 405.8037,111.6118 406.2367,110.1348 C406.6617,108.6538 406.8707,106.9868 406.8707,105.1258 C406.8707,100.0768 405.5147,96.2778 402.8067,93.7308 C400.0967,91.1768 396.2947,89.9048 391.3907,89.9048 L375.2067,89.9048 L375.2067,140.5078 L386.2157,140.5078 L386.2157,120.3538 L389.5687,120.3538 L396.3327,140.5078 L408.3707,140.5078 L399.7427,117.9238 Z" id="Fill-23" fill="#6972B5" mask="url(#mask-2)"></path>
                <polygon id="Fill-24" fill="#6972B5" mask="url(#mask-2)" points="199.416 84.227 224.053 84.227 224.053 77.952 199.416 77.952"></polygon>
            </g>
        </g>
    </g>
</svg>
