<svg width="409" height="205" viewBox="0 0 409 205" xmlns="http://www.w3.org/2000/svg" xmlns:xlink="http://www.w3.org/1999/xlink"><title>oureparer</title><defs><path id="a" d="M0 204.061h408.371V0H0z"/></defs><g fill="none" fill-rule="evenodd"><path d="M100.272 86.85l-31.155 17.983L37.963 86.85V50.877L69.117 32.89l31.155 17.987V86.85zM69.117 0C30.945 0 0 30.949 0 69.117c0 .815.026 1.65.062 2.491a69.07 69.07 0 0 0 3.957 20.756c14.745 48.47 65.098 111.697 65.098 111.697s50.346-63.223 65.092-111.69a68.625 68.625 0 0 0 3.957-20.763c.04-.841.067-1.673.067-2.491C138.233 30.949 107.288 0 69.117 0zm86.255 195.274c-.794 0-1.451.3-1.965.895a3.076 3.076 0 0 0-.777 2.085c0 .874.26 1.588.777 2.143.514.565 1.17.839 1.965.839.796 0 1.462-.274 1.999-.84.538-.554.804-1.268.804-2.142 0-.792-.266-1.496-.804-2.085-.537-.595-1.203-.895-2-.895m22.439 1.458c-1.23.862-2.604 1.279-4.113 1.279-1.751 0-3.274-.481-4.563-1.454-1.289-.975-2.366-2.302-3.219-3.972-.855-1.667-1.5-3.608-1.938-5.814-.437-2.195-.655-4.558-.655-7.06 0-2.506.209-4.87.625-7.098.419-2.221 1.053-4.173 1.91-5.84.852-1.675 1.927-2.981 3.219-3.935 1.293-.953 2.81-1.431 4.558-1.431 1.352 0 2.634.334 3.847 1.017 1.212.672 2.275 1.705 3.192 3.099l2.679-2.745c-1.148-1.785-2.591-3.1-4.317-3.94-1.73-.835-3.591-1.245-5.577-1.245-2.267 0-4.295.555-6.082 1.668-1.789 1.109-3.312 2.647-4.559 4.62-1.255 1.969-2.208 4.296-2.863 7.004-.658 2.704-.986 5.644-.986 8.827 0 3.136.328 6.06.986 8.764.655 2.704 1.598 5.043 2.833 7.003 1.228 1.97 2.739 3.52 4.528 4.659 1.791 1.124 3.834 1.69 6.143 1.69 2.148 0 4.075-.497 5.784-1.485 1.709-.995 3.121-2.426 4.234-4.295l-2.626-2.688c-.796 1.393-1.81 2.52-3.04 3.372m32.022-9.927c-.403 2.226-1.004 4.173-1.793 5.845-.791 1.667-1.786 2.98-2.981 3.933-1.19.953-2.584 1.428-4.171 1.428-1.632 0-3.054-.475-4.263-1.428-1.213-.953-2.219-2.266-3.012-3.933-.796-1.672-1.392-3.619-1.788-5.845-.4-2.226-.598-4.614-.598-7.15 0-2.545.198-4.934.597-7.156.397-2.225.993-4.158 1.788-5.788.794-1.633 1.8-2.92 3.013-3.873 1.209-.953 2.63-1.43 4.263-1.43 1.548 0 2.922.477 4.112 1.43 1.194.953 2.197 2.24 3.012 3.873.814 1.63 1.418 3.563 1.82 5.788.392 2.222.594 4.611.594 7.155 0 2.537-.203 4.925-.594 7.151m1.246-23.102c-1.192-1.928-2.64-3.432-4.35-4.506-1.708-1.068-3.657-1.604-5.84-1.604-2.267 0-4.263.536-5.995 1.604-1.728 1.074-3.19 2.578-4.38 4.506-1.191 1.926-2.1 4.25-2.714 6.97-.62 2.73-.924 5.72-.924 8.981 0 3.3.316 6.308.954 9.023.632 2.734 1.558 5.066 2.77 7.011 1.215 1.948 2.683 3.46 4.413 4.53 1.732 1.074 3.685 1.61 5.876 1.61 2.183 0 4.132-.536 5.84-1.61 1.71-1.07 3.157-2.582 4.35-4.53 1.196-1.945 2.108-4.277 2.75-7.01.637-2.716.945-5.724.945-9.024 0-3.262-.308-6.25-.945-8.982-.642-2.719-1.554-5.043-2.75-6.969m26.417 30.552h-.24l-10.074-35.65h-6.203v42.212h3.943v-36.672h.17l10.292 36.672h3.87l10.349-36.672h.174v36.672h4.12v-42.213h-6.44zM168.908 35.212c.312-1.884.786-3.513 1.428-4.897.646-1.38 1.454-2.465 2.432-3.253.98-.784 2.11-1.18 3.395-1.18 1.288 0 2.406.396 3.36 1.18.953.788 1.748 1.874 2.398 3.253.64 1.384 1.13 3.013 1.462 4.897.334 1.883.5 3.919.5 6.108 0 2.19-.166 4.246-.5 6.145-.332 1.91-.823 3.556-1.462 4.935-.65 1.382-1.445 2.478-2.399 3.285-.953.816-2.07 1.217-3.359 1.217-1.285 0-2.415-.401-3.395-1.217-.978-.807-1.786-1.903-2.432-3.285-.642-1.38-1.116-3.025-1.428-4.935-.308-1.9-.465-3.954-.465-6.145 0-2.19.157-4.225.465-6.108m-6.968 25.55c1.67 2.332 3.704 4.149 6.11 5.433 2.407 1.287 5.113 1.925 8.113 1.925 3 0 5.705-.638 8.112-1.925 2.406-1.284 4.442-3.101 6.113-5.433 1.666-2.332 2.954-5.16 3.856-8.466.908-3.318 1.361-6.967 1.361-10.976 0-4.001-.453-7.633-1.36-10.895-.903-3.264-2.19-6.053-3.857-8.362-1.67-2.311-3.707-4.102-6.113-5.365-2.407-1.262-5.112-1.891-8.112-1.891-3.047 0-5.779.629-8.185 1.89-2.404 1.264-4.445 3.055-6.11 5.366-1.669 2.309-2.944 5.098-3.825 8.362-.879 3.262-1.318 6.894-1.318 10.895 0 4.009.45 7.658 1.356 10.976.906 3.307 2.19 6.134 3.86 8.466m39.739-44.597v31.879c0 2.81.3 5.425.895 7.857.592 2.432 1.572 4.554 2.928 6.363 1.359 1.81 3.106 3.241 5.256 4.288 2.145 1.046 4.765 1.568 7.857 1.568 3.103 0 5.745-.522 7.944-1.568 2.188-1.047 3.972-2.478 5.35-4.288 1.384-1.809 2.394-3.931 3.039-6.363.646-2.432.96-5.047.96-7.857V16.165h-11.43v30.876c0 1.424-.088 2.765-.251 4.003s-.466 2.297-.892 3.175c-.433.884-.998 1.589-1.716 2.113-.715.522-1.645.784-2.78.784-1.155 0-2.077-.262-2.787-.784-.718-.524-1.292-1.229-1.721-2.113-.433-.878-.73-1.937-.893-3.175a30.055 30.055 0 0 1-.254-4.003V16.165H201.68z" fill="#6972B5"/><mask id="b" fill="#fff"><use xlink:href="#a"/></mask><path fill="#6972B5" mask="url(#b)" d="M201.655 10.432h34.095V4.161h-34.095zm-22.311 100.303c-1.213 1.029-2.632 1.538-4.253 1.538h-3.359V99.485h3.575a8.56 8.56 0 0 1 2.034.249 4.513 4.513 0 0 1 1.893.966c.575.48 1.04 1.118 1.397 1.924.358.812.534 1.864.534 3.147 0 2.287-.609 3.946-1.82 4.964m10.727 3.187c.69-1.045 1.248-2.31 1.677-3.787.423-1.481.636-3.148.636-5.01 0-5.048-1.352-8.847-4.06-11.394-2.71-2.554-6.515-3.826-11.412-3.826h-16.189v50.603h11.008v-20.154h3.345l6.77 20.154h12.042l-8.626-22.584c.811-.285 1.638-.763 2.495-1.432.852-.664 1.623-1.523 2.314-2.57m34.62 16.298H210.32v-10.864h12.44v-9.438h-12.44v-9.934h13.509V89.905h-24.44v50.603h25.302zm25.584-19.196c-1.094 1.169-2.423 1.75-4.003 1.75h-3.642V99.553h3.642c1.58 0 2.909.5 4.003 1.498 1.102 1.006 1.645 2.65 1.645 4.937 0 2.19-.543 3.878-1.645 5.036m12.369-5.253c0-3.004-.471-5.523-1.39-7.57-.934-2.055-2.157-3.686-3.653-4.901a13.972 13.972 0 0 0-5.002-2.61 19.763 19.763 0 0 0-5.47-.79h-15.72v50.608h11.22V122.07h4.935a16.35 16.35 0 0 0 5.502-.97 13.972 13.972 0 0 0 4.857-2.961c1.432-1.333 2.579-3.026 3.434-5.081.857-2.043 1.287-4.477 1.287-7.288m13.359 16.654l4.288-21.514h.281l4.078 21.514h-8.647zm-2.502-32.52l-12.289 50.604h11.431l2.077-9.22h11.358l2.081 9.22h11.93l-12.218-50.604h-14.37zm49.639 20.831c-1.216 1.029-2.632 1.538-4.25 1.538h-3.36V99.485h3.573c.668 0 1.352.08 2.04.249a4.51 4.51 0 0 1 1.891.966c.577.48 1.04 1.118 1.397 1.924.354.812.531 1.864.531 3.147 0 2.287-.599 3.946-1.822 4.964m8.411 5.757c.86-.664 1.626-1.523 2.318-2.57.694-1.045 1.245-2.31 1.681-3.787.422-1.481.635-3.148.635-5.01 0-5.048-1.356-8.847-4.06-11.394-2.712-2.554-6.516-3.826-11.416-3.826h-16.185v50.603h11.006v-20.154h3.345l6.771 20.154h12.04l-8.63-22.584c.816-.285 1.641-.763 2.495-1.432m22.573 2.864h12.442v-9.438h-12.442v-9.934h13.509v-10.08h-24.447v50.604h25.298V130.22h-14.36zm39.701-8.621c-1.211 1.029-2.632 1.538-4.25 1.538h-3.36V99.485h3.574a8.53 8.53 0 0 1 2.035.249 4.488 4.488 0 0 1 1.894.966c.578.48 1.038 1.118 1.395 1.924.357.812.539 1.864.539 3.147 0 2.287-.615 3.946-1.827 4.964zm5.917 7.189c.816-.285 1.64-.763 2.495-1.432.859-.664 1.625-1.523 2.317-2.57.695-1.045 1.249-2.31 1.682-3.787.425-1.481.634-3.148.634-5.01 0-5.048-1.356-8.847-4.064-11.394-2.71-2.554-6.512-3.826-11.416-3.826h-16.184v50.603h11.009v-20.154h3.353l6.764 20.154h12.038l-8.628-22.584zM199.416 84.227h24.637v-6.275h-24.637z"/></g></svg>