<svg width="284" height="284" viewBox="0 0 284 284" xmlns="http://www.w3.org/2000/svg" xmlns:xlink="http://www.w3.org/1999/xlink"><title>oxioneo</title><defs><path id="a" d="M0 283.46h283.46V0H0z"/></defs><g fill="none" fill-rule="evenodd"><path d="M66.177 241.104c-.06 0-1.534 2.273-2.765 3.992l-12.096 15.721h-4.361l17.01-22.415-15.596-20.573h4.359l10.684 14.063c.614.984 2.705 3.992 2.765 3.992h.06c.062 0 2.09-3.008 2.765-3.992l10.624-14.063h4.36L68.45 238.402l17.01 22.415H81.1l-12.098-15.721c-1.29-1.719-2.703-3.992-2.765-3.992h-.06z" fill="#1F2EA8"/><mask id="b" fill="#fff"><use xlink:href="#a"/></mask><path fill="#1F2EA8" mask="url(#b)" d="M92.521 260.816h3.501v-42.987h-3.501zm34.266-2.578c10.44 0 18.731-7.739 18.731-18.915 0-11.3-8.29-18.915-18.73-18.915-10.5 0-18.67 7.615-18.67 18.915 0 11.176 8.17 18.915 18.67 18.915m0-41.268c12.343 0 22.353 9.396 22.353 22.353 0 12.958-10.01 22.355-22.354 22.355-12.343 0-22.29-9.397-22.29-22.355 0-12.957 9.947-22.353 22.29-22.353M24.75 258.238c10.44 0 18.731-7.739 18.731-18.915 0-11.3-8.29-18.915-18.73-18.915-10.503 0-18.67 7.615-18.67 18.915 0 11.176 8.168 18.915 18.67 18.915m0-41.268c12.342 0 22.354 9.396 22.354 22.353 0 12.958-10.011 22.355-22.354 22.355-12.345 0-22.293-9.397-22.293-22.355 0-12.957 9.948-22.353 22.292-22.353m166.887.86v42.986h-3.316l-21.923-29.538c-3.685-5.036-5.526-7.799-5.588-7.799h-.061c-.063 0 .123 5.035.123 11.177v26.16h-3.502V217.83h3.316l21.863 29.415c3.376 4.546 5.587 7.616 5.65 7.616h.061c.06 0-.184-5.159-.184-10.932V217.83h3.56zm40.285 39.61v3.377H203.61V217.83h27.944v3.377H207.11v14.985h19.713v3.255H207.11v17.994zm26.406.798c10.442 0 18.73-7.739 18.73-18.915 0-11.3-8.288-18.915-18.73-18.915-10.5 0-18.67 7.615-18.67 18.915 0 11.176 8.17 18.915 18.67 18.915m0-41.268c12.343 0 22.354 9.396 22.354 22.353 0 12.958-10.011 22.355-22.354 22.355-12.344 0-22.292-9.397-22.292-22.355 0-12.957 9.948-22.353 22.292-22.353"/><path d="M141.424 69.584c7.664 5.755 14.203 10.434 20.492 15.435 17.885 14.219 14.44 7.31 14.818 30.13.085 5.099.194 10.203-.084 15.282-.273 5.079-2.23 7.142-6.126 7.326-4.172.202-6.755-2.306-7.05-7.42-.258-4.48-.072-8.983-.072-13.481-.007-4.47 0-8.934 0-13.581-7.075-5.491-13.912-10.793-21.615-16.776l-21.719 16.505c0 7.029.014 14.188-.006 21.339-.01 2.396.136 4.827-.204 7.18-.517 3.583-2.34 6.117-6.397 6.239-3.955.124-6.229-2.001-7.019-6.6a6.368 6.368 0 0 1-.077-.892c-.007-9.593-.16-19.182.094-28.762.06-2.214.87-5.185 2.437-6.465 10.403-8.477 21.101-16.588 32.528-25.46" fill="#7882CB" mask="url(#b)"/><path d="M141.57 32.792c-39.086 0-70.885 31.798-70.885 70.883 0 39.086 31.8 70.884 70.885 70.884 39.086 0 70.885-31.798 70.885-70.884 0-39.085-31.799-70.883-70.885-70.883m0 152.816c-45.178 0-81.933-36.755-81.933-81.933 0-45.177 36.755-81.932 81.933-81.932 45.178 0 81.933 36.755 81.933 81.932 0 45.178-36.755 81.933-81.933 81.933" fill="#7882CB" mask="url(#b)"/></g></svg>