<?xml version="1.0" encoding="UTF-8" standalone="no"?>
<svg width="284px" height="284px" viewBox="0 0 284 284" version="1.1" xmlns="http://www.w3.org/2000/svg" xmlns:xlink="http://www.w3.org/1999/xlink">
    <!-- Generator: Sketch 3.8.3 (29802) - http://www.bohemiancoding.com/sketch -->
    <title>oxioneo</title>
    <desc>Created with Sketch.</desc>
    <defs>
        <polygon id="path-1" points="0 283.46 283.46 283.46 283.46 0 0 0"></polygon>
    </defs>
    <g id="Page-1" stroke="none" stroke-width="1" fill="none" fill-rule="evenodd">
        <g id="oxioneo">
            <g id="logoOxioneo">
                <path d="M66.1767,241.104 C66.1167,241.104 64.6427,243.377 63.4117,245.096 L51.3157,260.817 L46.9547,260.817 L63.9657,238.402 L48.3687,217.829 L52.7277,217.829 L63.4117,231.892 C64.0257,232.876 66.1167,235.884 66.1767,235.884 L66.2367,235.884 C66.2987,235.884 68.3277,232.876 69.0017,231.892 L79.6257,217.829 L83.9867,217.829 L68.4497,238.402 L85.4597,260.817 L81.1007,260.817 L69.0017,245.096 C67.7117,243.377 66.2987,241.104 66.2367,241.104 L66.1767,241.104 L66.1767,241.104 Z" id="Fill-1" fill="#1F2EA8"></path>
                <mask id="mask-2" fill="white">
                    <use xlink:href="#path-1"></use>
                </mask>
                <g id="Clip-4"></g>
                <polygon id="Fill-3" fill="#1F2EA8" mask="url(#mask-2)" points="92.521 260.816 96.022 260.816 96.022 217.829 92.521 217.829"></polygon>
                <path d="M126.7872,258.2384 C137.2272,258.2384 145.5182,250.4994 145.5182,239.3234 C145.5182,228.0234 137.2272,220.4084 126.7872,220.4084 C116.2872,220.4084 108.1182,228.0234 108.1182,239.3234 C108.1182,250.4994 116.2872,258.2384 126.7872,258.2384 M126.7872,216.9704 C139.1312,216.9704 149.1412,226.3664 149.1412,239.3234 C149.1412,252.2814 139.1312,261.6784 126.7872,261.6784 C114.4442,261.6784 104.4972,252.2814 104.4972,239.3234 C104.4972,226.3664 114.4442,216.9704 126.7872,216.9704" id="Fill-5" fill="#1F2EA8" mask="url(#mask-2)"></path>
                <path d="M24.7505,258.2384 C35.1905,258.2384 43.4815,250.4994 43.4815,239.3234 C43.4815,228.0234 35.1905,220.4084 24.7505,220.4084 C14.2485,220.4084 6.0815,228.0234 6.0815,239.3234 C6.0815,250.4994 14.2485,258.2384 24.7505,258.2384 M24.7505,216.9704 C37.0935,216.9704 47.1045,226.3664 47.1045,239.3234 C47.1045,252.2814 37.0935,261.6784 24.7505,261.6784 C12.4065,261.6784 2.4585,252.2814 2.4585,239.3234 C2.4585,226.3664 12.4065,216.9704 24.7505,216.9704" id="Fill-6" fill="#1F2EA8" mask="url(#mask-2)"></path>
                <path d="M191.6365,217.8294 L191.6365,260.8164 L188.3205,260.8164 L166.3975,231.2784 C162.7125,226.2424 160.8715,223.4794 160.8095,223.4794 L160.7485,223.4794 C160.6865,223.4794 160.8715,228.5144 160.8715,234.6564 L160.8715,260.8164 L157.3705,260.8164 L157.3705,217.8294 L160.6865,217.8294 L182.5495,247.2444 C185.9255,251.7904 188.1355,254.8604 188.1985,254.8604 L188.2605,254.8604 C188.3205,254.8604 188.0755,249.7014 188.0755,243.9284 L188.0755,217.8294 L191.6365,217.8294 Z" id="Fill-7" fill="#1F2EA8" mask="url(#mask-2)"></path>
                <polygon id="Fill-8" fill="#1F2EA8" mask="url(#mask-2)" points="231.9215 257.4402 231.9215 260.8172 203.6105 260.8172 203.6105 217.8292 231.5545 217.8292 231.5545 221.2062 207.1115 221.2062 207.1115 236.1912 226.8235 236.1912 226.8235 239.4462 207.1115 239.4462 207.1115 257.4402"></polygon>
                <path d="M258.3278,258.2384 C268.7698,258.2384 277.0588,250.4994 277.0588,239.3234 C277.0588,228.0234 268.7698,220.4084 258.3278,220.4084 C247.8278,220.4084 239.6588,228.0234 239.6588,239.3234 C239.6588,250.4994 247.8278,258.2384 258.3278,258.2384 M258.3278,216.9704 C270.6708,216.9704 280.6818,226.3664 280.6818,239.3234 C280.6818,252.2814 270.6708,261.6784 258.3278,261.6784 C245.9838,261.6784 236.0358,252.2814 236.0358,239.3234 C236.0358,226.3664 245.9838,216.9704 258.3278,216.9704" id="Fill-9" fill="#1F2EA8" mask="url(#mask-2)"></path>
                <path d="M141.4242,69.5838 C149.0882,75.3388 155.6272,80.0178 161.9162,85.0188 C179.8012,99.2378 176.3552,92.3298 176.7342,115.1498 C176.8192,120.2478 176.9282,125.3518 176.6502,130.4308 C176.3772,135.5098 174.4192,137.5728 170.5242,137.7568 C166.3522,137.9588 163.7692,135.4508 163.4732,130.3368 C163.2162,125.8578 163.4022,121.3538 163.4022,116.8558 C163.3952,112.3868 163.4022,107.9218 163.4022,103.2748 C156.3272,97.7838 149.4902,92.4818 141.7872,86.4988 C134.7012,91.8838 127.6662,97.2288 120.0682,103.0038 C120.0682,110.0328 120.0822,117.1918 120.0622,124.3428 C120.0522,126.7388 120.1982,129.1698 119.8582,131.5238 C119.3412,135.1058 117.5182,137.6398 113.4612,137.7618 C109.5062,137.8858 107.2322,135.7608 106.4422,131.1628 C106.3962,130.8698 106.3692,130.5658 106.3652,130.2698 C106.3582,120.6768 106.2042,111.0878 106.4592,101.5078 C106.5182,99.2938 107.3292,96.3228 108.8962,95.0428 C119.2992,86.5658 129.9972,78.4548 141.4242,69.5838" id="Fill-10" fill="#7882CB" mask="url(#mask-2)"></path>
                <path d="M141.5703,32.7918 C102.4843,32.7918 70.6853,64.5898 70.6853,103.6748 C70.6853,142.7608 102.4843,174.5588 141.5703,174.5588 C180.6563,174.5588 212.4553,142.7608 212.4553,103.6748 C212.4553,64.5898 180.6563,32.7918 141.5703,32.7918 M141.5703,185.6078 C96.3923,185.6078 59.6373,148.8528 59.6373,103.6748 C59.6373,58.4978 96.3923,21.7428 141.5703,21.7428 C186.7483,21.7428 223.5033,58.4978 223.5033,103.6748 C223.5033,148.8528 186.7483,185.6078 141.5703,185.6078" id="Fill-11" fill="#7882CB" mask="url(#mask-2)"></path>
            </g>
        </g>
    </g>
</svg>