<svg id="Mode_Isolation" data-name="Mode Isolation" xmlns="http://www.w3.org/2000/svg" viewBox="0 0 710.45 974.58"><defs><style>.cls-1{fill:#363a94}.cls-2{fill:#6b74b7}.cls-3{fill:#2b2d3b}</style></defs><title>geev</title><path class="cls-1" d="M645.45 480.68c0 9.35-6.63 20.83-14.73 25.51L370 656.75c-8.1 4.68-21.36 4.68-29.46 0L79.73 506.2C71.62 501.52 65 490 65 480.68V179.57c0-9.35 6.63-20.83 14.73-25.51L340.5 3.51c8.1-4.68 21.36-4.68 29.46 0l260.76 150.55c8.1 4.68 14.73 16.16 14.73 25.51v301.11z"/><path class="cls-2" d="M603.71 306.22c-2.87-42.14-50.24-78.52-91.67-80.29q-156.81-5.47-313.62 0c-41.43 1.77-88.8 38.15-91.67 80.29a288.52 288.52 0 0 0 0 33.11c2.87 42.14 50.24 78.52 91.67 80.29q31.65 1.11 63.31 1.75V446c0 42.5 34.45 74.71 77 74.71h33.11c42.5 0 77-32.21 77-74.71v-24.6q31.65-.66 63.31-1.75c41.43-1.77 88.8-38.15 91.67-80.29a287.22 287.22 0 0 0-.11-33.14z"/><path class="cls-3" d="M366.66 384c18.07 0 24 11.83 13.14 26.28l-4.87 6.49c-10.84 14.45-28.58 14.45-39.41 0l-4.87-6.49c-10.84-14.43-4.92-26.28 13.14-26.28h22.86z"/><path class="cls-1" d="M366.66 384c18.07 0 24 11.83 13.14 26.28l-4.87 6.49c-10.84 14.45-28.58 14.45-39.41 0l-4.87-6.49c-10.84-14.43-4.92-26.28 13.14-26.28h22.86z"/><circle class="cls-1" cx="477.99" cy="322.78" r="38.83"/><circle class="cls-1" cx="212.05" cy="322.78" r="38.83"/><path class="cls-2" d="M645.45 265.13a65 65 0 1 1 0 130v-130zm-580.45 0a65 65 0 1 0 0 130v-130z"/><path class="cls-1" d="M377.22 485.27a7 7 0 0 1-1.46-13.85c.38-.08 25.08-5.65 33.4-22.29a7 7 0 1 1 12.52 6.26c-11.38 22.75-41.71 29.44-43 29.72a7 7 0 0 1-1.46.16z"/><path class="cls-2" d="M168.61 791v-18.06a27.13 27.13 0 1 0-54.27 0v141a27.13 27.13 0 1 0 54.27 0v-54.8H150a8.3 8.3 0 0 1-8.51-8v-17a8.4 8.4 0 0 1 8.51-8.51h44.16a8.4 8.4 0 0 1 8.51 8.51v79.8c0 33.52-27.66 60.65-61.18 60.65S80.3 947.44 80.3 913.93v-141a61.18 61.18 0 1 1 122.37 0V791a8.4 8.4 0 0 1-8.51 8.51h-17a8.4 8.4 0 0 1-8.55-8.51zm112.26-45.73v80.34h46.29a8.4 8.4 0 0 1 8.51 8.51v17a8.4 8.4 0 0 1-8.51 8.51h-46.29v80.87h46.29a8.4 8.4 0 0 1 8.51 8.51v17a8.4 8.4 0 0 1-8.51 8.51h-63.32a17.14 17.14 0 0 1-17-17V728.25a16.81 16.81 0 0 1 17-17h63.31a8.4 8.4 0 0 1 8.51 8.51v17a8.4 8.4 0 0 1-8.51 8.51h-46.28zm133.01 0v80.34h46.29a8.4 8.4 0 0 1 8.51 8.51v17a8.4 8.4 0 0 1-8.51 8.51h-46.29v80.87h46.29a8.4 8.4 0 0 1 8.51 8.51v17a8.4 8.4 0 0 1-8.51 8.51h-63.32a17.14 17.14 0 0 1-17-17V728.25a16.81 16.81 0 0 1 17-17h63.31a8.4 8.4 0 0 1 8.51 8.51v17a8.4 8.4 0 0 1-8.51 8.51h-46.28zm221.32-25v165.46a63.78 63.78 0 0 1-10.11 34l-28.73 50.54a8.49 8.49 0 0 1-7.45 4.26h-29.79a8.49 8.49 0 0 1-7.45-4.26l-28.73-50.54a63.79 63.79 0 0 1-10.11-34V720.27a8.4 8.4 0 0 1 8.51-8.51h17a8.4 8.4 0 0 1 8.51 8.51v165.46a22.05 22.05 0 0 0 1.6 8.51L574 940l26.07-45.75a41.34 41.34 0 0 0 1.06-8.51V720.27a8.75 8.75 0 0 1 8.51-8.51h17a8.4 8.4 0 0 1 8.56 8.51z"/></svg>