<svg id="Layer_1" xmlns="http://www.w3.org/2000/svg" viewBox="0 0 297.6 58.3"><style>.st0{fill:#fff}.st1{fill:#2736ac}.st2{fill:#4855b9}</style><path class="st1" d="M0 42.5c.1-.2.2-.4.2-.7.4-5.1.5-10.1 1.1-15.2C2.4 17.9 4.6 9.4 9.2 1.8 9.8.8 10.5.2 11.9.3c3.5.1 7 0 10.4 0h1.3c-.8 7.5-2.3 14.9 1.4 22.1C11 29.9 5.8 42.9 3.7 57.8H2.2c.2-2.8.2-5.6.5-8.3.6-6.1 1.7-12.1 3.8-17.9.4-1.2.9-2.3 1.4-3.4.2-.4.6-.7 1-.9 1.3-.5 1.8-2 1-3.1-.6-.7-1.4-.8-1.9-.2-.5.6-.9 1.5-.8 2.3.1.7 0 1.3-.2 1.9C4.3 34 2.9 40.1 2.2 46.4c-.4 3.6-.6 7.2-.8 10.8 0 .2-.1.4-.2.6H.8c-.1-.5-.3-1-.3-1.5L.2 47c0-.3-.1-.5-.2-.8v-3.7zm116.2-24c-2.2-.3-4.4-.8-6.5-.8-3-.1-6-.2-8.9.1-3 .3-4.1 1.9-4.1 4.9v10.8c0 2 .7 3 2.6 3.5 3.2 1 6.5 1 9.8.2.3-.1.6-.5.6-.8.1-2.1 0-4.1 0-6.4h-4.6v-4.3h11.1c0 .3.1.6.1.9v13.1c0 .8-.2 1.2-1 1.3-3.4.5-6.8 1.1-10.2 1.4-3.3.3-6.7 0-9.9-1-3.8-1.2-5.6-3.6-5.6-7.6V21.9c0-3.7 1.8-6.2 5.1-7.7 2.7-1.2 5.7-1.8 8.6-1.7 3.9.1 7.7.5 11.6.7.8 0 1.2.3 1.2 1.3 0 1.3.1 2.6.1 4zM64.4 42.1V13h22.1v4.7H71.4v6.9H85v4.9H71.4v7.6h15.7V42c-7.7.1-15.1.1-22.7.1zm83.7.1h-6.8c-.7-2.2-1.5-4.4-2.2-6.6-.3-.9-.6-1.2-1.6-1.2-2.8.1-5.6.1-8.4 0-1 0-1.4.3-1.7 1.2-.6 2-1.2 3.9-1.9 5.8-.1.4-.7.8-1.1.8-1.9.1-3.8 0-6 0 .3-.8.5-1.5.8-2.3 3.2-8.7 6.4-17.3 9.6-26 .3-.7.6-1 1.4-1h6.6c.6 0 1 .2 1.2.8 3.3 9.2 6.6 18.4 10 27.5.1.4 0 .6.1 1zm-14.7-23.4h-.4c-1.2 3.6-2.4 7.2-3.7 11h7.8c-1.2-3.7-2.4-7.3-3.7-11z"/><path class="st2" d="M276 18v24.1c-1.1 0-2.1.1-3.1 0-.2 0-.5-.6-.5-1V13h4.6c.3 0 .7.4.9.8 3.5 5.3 7.1 10.7 10.6 16.1 1.4 2.1 2.8 4.2 4.3 6.4.1.2.3.4.8.9v-24h3.5c0 .3.1.7.1 1.1v26.5c0 1.1-.4 1.4-1.4 1.4-3.7 0-3.7 0-5.7-3.2-4.3-6.7-8.7-13.5-13.1-20.2-.2-.3-.4-.5-.6-.8-.2-.1-.3-.1-.4 0zm-8.6 9.7v7c0 3.2-1.4 5.4-4.4 6.5-5 1.8-10.2 1.9-15.3.2-2.9-1-4.7-3.1-4.8-6.2-.1-4.9-.1-9.8 0-14.7.1-3.8 2.1-6 5.7-7 4.4-1.2 8.8-1.2 13.1.1 3.8 1.2 5.5 3.6 5.5 7.5.3 2.2.2 4.4.2 6.6zm-20.5-.2v6.6c0 3 1.3 4.7 4.3 5.4 2.5.6 5 .6 7.5.1 3.2-.6 4.7-2 4.8-5.1.1-4.6.1-9.3 0-13.9-.1-2.9-1.4-4.3-4.3-5-2.4-.6-4.8-.6-7.2-.2-3.7.7-5 2.3-5 6.1-.1 2-.1 4-.1 6z"/><path class="st1" d="M46.7 37.2h14.4V42H40V13h6.7v24.2zm104.1 4.9v-29h6.8v24.1h14.3v4.9h-21.1z"/><path class="st2" d="M228.2 16c-1.9-.2-3.6-.5-5.3-.5-2.1-.1-4.2-.1-6.3.1-2.3.2-3.2 1.3-3.2 3.7v3.4c.1 1.4.8 2.4 2.2 2.6 1.7.2 3.4.2 5.1.3 1.8.2 3.7.3 5.4.6 1.6.3 2.6 1.5 3 3.1.8 2.9.8 5.8-.1 8.7-.9 2.9-3.4 3.9-6.1 4.3-4.1.6-8.3.2-12.4-.3-.2 0-.6-.3-.6-.5-.1-.9 0-1.8 0-2.8 1.2.2 2.2.4 3.2.5 2.7.2 5.5.3 8.2.4.8 0 1.6-.3 2.4-.6 1-.3 1.7-1.1 1.7-2.2 0-1.7.1-3.4 0-5.2-.1-1.5-.9-2.5-2.4-2.7-2.1-.2-4.1-.2-6.2-.3-1.2-.1-2.3-.2-3.4-.4-2-.5-3.4-1.7-3.7-3.7-.3-2.1-.4-4.4-.2-6.5.2-2.2 1.7-3.7 3.8-4.3 3-1 6-1 9.1-.9 1.6.1 3.1.3 4.7.4.9 0 1.2.4 1.1 1.3-.1.3 0 .8 0 1.5zM197 13c-1 2.5-1.9 4.8-2.8 7.1-2.8 7-5.6 13.9-8.3 20.9-.3.8-.8 1.1-1.6 1-1.2-.1-2.7.4-3.5-.2-.8-.6-1-2.1-1.5-3.2-3.2-8.1-6.3-16.2-9.4-24.3-.2-.4-.3-.8-.5-1.4 1.3 0 2.5-.1 3.7 0 .3 0 .7.6.9.9 1.6 4.2 3.1 8.4 4.7 12.6l3.9 10.5c.1.4.4.7.7 1.4.4-.9.7-1.5.9-2.1 2.8-7.5 5.7-15.1 8.4-22.7.2-.6.5-.9 1.2-.9 1 .4 2 .4 3.2.4zm37.1 29V13.1h3.9V42h-3.9zm-29.5.1h-3.2c-.8 0-.7-.5-.7-1.1V13.1h3.9v29z"/></svg>