<svg width="304" height="303" viewBox="0 0 304 303" xmlns="http://www.w3.org/2000/svg"><title>Artboard 1</title><defs><linearGradient x1="-13.106%" y1="-11.762%" x2="156.934%" y2="154.673%" id="a"><stop stop-color="#6972B5" offset="0%"/><stop stop-color="#5864AC" offset="32%"/><stop stop-color="#2C4193" offset="95%"/><stop stop-color="#283E91" offset="100%"/></linearGradient><linearGradient x1="215.088%" y1="20793%" x2="10949.19%" y2="48541%" id="b"><stop stop-color="#6972B5" offset="0%"/><stop stop-color="#5864AC" offset="32%"/><stop stop-color="#2C4193" offset="95%"/><stop stop-color="#283E91" offset="100%"/></linearGradient><linearGradient x1="3296%" y1="7482.759%" x2="31644%" y2="19023.248%" id="c"><stop stop-color="#6972B5" offset="0%"/><stop stop-color="#5864AC" offset="32%"/><stop stop-color="#2C4193" offset="95%"/><stop stop-color="#283E91" offset="100%"/></linearGradient><linearGradient x1="4941%" y1="5729.758%" x2="33290%" y2="17256.266%" id="d"><stop stop-color="#6972B5" offset="0%"/><stop stop-color="#5864AC" offset="32%"/><stop stop-color="#2C4193" offset="95%"/><stop stop-color="#283E91" offset="100%"/></linearGradient><linearGradient x1="8290%" y1="8946.247%" x2="36638%" y2="33025.642%" id="e"><stop stop-color="#6972B5" offset="0%"/><stop stop-color="#5864AC" offset="32%"/><stop stop-color="#2C4193" offset="95%"/><stop stop-color="#283E91" offset="100%"/></linearGradient><linearGradient x1="10726%" y1="2345.117%" x2="39075%" y2="10549.057%" id="f"><stop stop-color="#6972B5" offset="0%"/><stop stop-color="#5864AC" offset="32%"/><stop stop-color="#2C4193" offset="95%"/><stop stop-color="#283E91" offset="100%"/></linearGradient><linearGradient x1="12776%" y1="279.97%" x2="41124%" y2="1405.642%" id="g"><stop stop-color="#6972B5" offset="0%"/><stop stop-color="#5864AC" offset="32%"/><stop stop-color="#2C4193" offset="95%"/><stop stop-color="#283E91" offset="100%"/></linearGradient></defs><g fill="none" fill-rule="evenodd"><path d="M151.94.1c-46.038 0-83.36 37.322-83.36 83.36s37.322 83.36 83.36 83.36 83.36-37.322 83.36-83.36S197.978.1 151.94.1zm43.32 105.58l-37.68-.27-27.78 33.21a2 2 0 0 1-3.48-.51l-4.32-9.24a2 2 0 0 1 .32-2.27l18.41-21.13v-.1l-28 .48c-1.27 0-1.7-.71-2.27-1.94l-3.81-8.22c-.76-1.64.19-3.08 1.86-3l82.56-.06a2.26 2.26 0 0 1 2 1.17l4.09 8.83a2 2 0 0 1-1.9 3.05zm.08-31.46l-82.56.06a2.26 2.26 0 0 1-2-1.17l-4.09-8.83a2 2 0 0 1 2-3l37.68.27 27.79-33.21a2 2 0 0 1 3.48.51l4.28 9.24a2 2 0 0 1-.32 2.27l-18.5 21.1v.1l28-.48c1.27 0 1.7.71 2.27 1.94l3.81 8.22c.82 1.64-.18 3.08-1.84 2.98z" fill="url(#a)"/><path d="M.53 225.93a2.15 2.15 0 0 1 2.15-2.15h4.18A1.92 1.92 0 0 1 8.78 225l1.58 4.29a20.59 20.59 0 0 1 15.14-6.67 17.8 17.8 0 0 1 14.69 7c1.92-2 7.8-7 15.93-7 14.46 0 19.78 10.74 19.78 22.6v21.58a2.15 2.15 0 0 1-2.15 2.15H64.6a2.15 2.15 0 0 1-2.15-2.15v-22.33c0-5.88-2.83-9.61-8.48-9.61a11.37 11.37 0 0 0-9.49 4.75s.11 2.26.11 4.29v22.94a2.22 2.22 0 0 1-2.15 2.15H34a2.15 2.15 0 0 1-2.15-2.15v-22.37c0-5.88-2.6-9.61-8.36-9.61s-8.36 4.07-9.49 7.12v24.86a2.22 2.22 0 0 1-2.15 2.15H2.68a2.22 2.22 0 0 1-2.15-2.15v-40.91z" fill="url(#b)"/><path d="M82.13 226.73a2 2 0 0 1 1.92-2.94h10.17a2 2 0 0 1 1.92 1.24l11.41 25.54h.11L119 225c.57-1.13 1.36-1.24 2.71-1.24h9c1.81 0 2.71 1.47 1.92 2.94l-34.58 74.81a2.26 2.26 0 0 1-1.92 1.36h-9.72a2 2 0 0 1-1.92-3.05l16-34-18.36-39.09z" fill="url(#c)"/><path d="M141.49 226.73a2 2 0 0 1 1.92-2.94h10.17a2 2 0 0 1 1.92 1.24l11.41 25.54h.09L178.33 225c.57-1.13 1.36-1.24 2.71-1.24h9c1.81 0 2.71 1.47 1.92 2.94l-34.58 74.81a2.26 2.26 0 0 1-1.92 1.36h-9.72a2 2 0 0 1-1.92-3.05l16-34-18.33-39.09z" fill="url(#d)"/><path d="M219.35 222.66a20.72 20.72 0 0 1 21.13 21 27.64 27.64 0 0 1-.23 3.05 2.19 2.19 0 0 1-2.15 1.92h-28.92a10.78 10.78 0 0 0 10.82 9.85 15.71 15.71 0 0 0 8.82-2.83c1.13-.68 2.15-.9 2.94 0l4.63 5.31a1.86 1.86 0 0 1-.11 2.94 24.33 24.33 0 0 1-16.84 6.21c-13.56 0-23.17-10.74-23.17-23.73.03-12.76 9.64-23.72 23.08-23.72zm7.91 18.08a8.44 8.44 0 0 0-8.25-7.68 8.9 8.9 0 0 0-8.81 7.68h17.06z" fill="url(#e)"/><path d="M252.35 235.65h-3.84a2.12 2.12 0 0 1-2-2.15v-7.57a2.05 2.05 0 0 1 2-2.15h3.84v-12.54a2.22 2.22 0 0 1 2.15-2.15l9.27-.11a2.12 2.12 0 0 1 2 2.15v12.66h9.94a2.08 2.08 0 0 1 2.15 2.15v7.57a2.15 2.15 0 0 1-2.15 2.15h-9.91v18.08c0 3.16 1.7 3.62 3.5 3.62 1.9-.121 3.77-.54 5.54-1.24a1.76 1.76 0 0 1 2.49 1.24l2.26 7.12a2 2 0 0 1-1.24 2.71c-.57.34-7.91 2.94-13.45 2.94-8.7 0-12.54-5.42-12.54-14.58v-19.9h-.01z" fill="url(#f)"/><path d="M287.95 199.94a7.72 7.72 0 0 1 7.68-7.8 7.8 7.8 0 0 1 0 15.6 7.72 7.72 0 0 1-7.68-7.8zm1 26a2.15 2.15 0 0 1 2.15-2.15h9.38a2.15 2.15 0 0 1 2.15 2.15v40.91a2.22 2.22 0 0 1-2.15 2.15h-9.38a2.22 2.22 0 0 1-2.15-2.15v-40.92.01z" fill="url(#g)"/></g></svg>