<?xml version="1.0" encoding="UTF-8"?>
<svg width="193px" height="53px" viewBox="0 0 193 53" version="1.1" xmlns="http://www.w3.org/2000/svg" xmlns:xlink="http://www.w3.org/1999/xlink">
    <!-- Generator: Sketch 41.1 (35376) - http://www.bohemiancoding.com/sketch -->
    <title>popsite</title>
    <desc>Created with Sketch.</desc>
    <defs></defs>
    <g id="Page-1" stroke="none" stroke-width="1" fill="none" fill-rule="evenodd">
        <g id="popsite">
            <g id="g10" transform="translate(97.000000, 26.100000) scale(1, -1) translate(-97.000000, -26.100000) translate(0.500000, 0.100000)">
                <g id="g12" transform="translate(0.125000, 0.000000)">
                    <path d="M131.83,36.555625 L130.88625,38.78325 C130.46125,39.786625 129.675,40.59375 128.6825,41.044375 L126.47875,42.044 L128.39625,42.806625 C129.6375,43.30075 130.63125,44.269 131.15625,45.4975 L131.9675,47.395 L132.695,45.71775 C133.24125,44.458 134.21875,43.433125 135.45,42.826125 L137.31875,41.90625 L135.31875,41.117625 C134.125,40.6465 133.17125,39.715875 132.67,38.534125 L131.83,36.555625" id="path14" fill="#7882CB"></path>
                    <path d="M12.172875,39.69725 C10.13775,39.69725 7.086375,39.27875 5.2905,38.561 L5.2905,17.017125 C8.28275,16.120625 10.377,15.940375 12.232875,15.940375 C17.618125,15.940375 21.507875,19.05275 21.507875,27.849125 C21.507875,36.645 17.857375,39.69725 12.172875,39.69725 Z M13.070375,11.453125 C10.856,11.453125 8.222625,11.631875 5.2905,12.46975 L5.2905,0.859875 C5.2905,0.142125 5.05125,0.022 4.393125,0.022 L1.042,0.022 C0.443875,0.022 0.085,0.142125 0.085,0.859875 L0.085,40.954125 C0.085,41.492625 0.264125,41.792 0.80275,41.971625 C4.7525,43.7075 9.180625,44.184625 13.01025,44.184625 C22.645,44.184625 26.953125,37.244125 26.953125,27.849125 C26.953125,18.8125 22.40575,11.453125 13.070375,11.453125 L13.070375,11.453125 Z" id="path16" fill="#1F2EA8"></path>
                    <path d="M46.40525,39.817375 C40.30175,39.817375 37.548875,34.430625 37.548875,27.96725 C37.548875,20.788625 39.583,15.820375 46.225625,15.820375 C52.98775,15.820375 55.023,21.744625 55.023,27.789125 C55.023,34.01175 53.40675,39.817375 46.40525,39.817375 Z M46.1655,11.453125 C37.19,11.453125 32.34225,17.077125 32.34225,27.789125 C32.34225,38.32075 38.326625,44.184625 46.34575,44.184625 C55.441375,44.184625 60.288625,38.082 60.288625,27.96725 C60.288625,17.3775 55.32125,11.453125 46.1655,11.453125 L46.1655,11.453125 Z" id="path18" fill="#1F2EA8"></path>
                    <path d="M78.9625,39.69725 C76.9275,39.69725 73.87625,39.27875 72.08125,38.561 L72.08125,17.017125 C75.0725,16.120625 77.1675,15.940375 79.0225,15.940375 C84.40875,15.940375 88.2975,19.05275 88.2975,27.849125 C88.2975,36.645 84.6475,39.69725 78.9625,39.69725 Z M79.86125,11.453125 C77.64625,11.453125 75.0125,11.631875 72.08125,12.46975 L72.08125,0.859875 C72.08125,0.142125 71.84125,0.022 71.183125,0.022 L67.832,0.022 C67.233875,0.022 66.875,0.142125 66.875,0.859875 L66.875,40.954125 C66.875,41.492625 67.05475,41.792 67.59275,41.971625 C71.5425,43.7075 75.97125,44.184625 79.80125,44.184625 C89.435,44.184625 93.74375,37.244125 93.74375,27.849125 C93.74375,18.8125 89.19625,11.453125 79.86125,11.453125 L79.86125,11.453125 Z" id="path20" fill="#1F2EA8"></path>
                    <path d="M110.6825,11.453125 C106.97125,11.453125 102.30375,12.110875 99.07375,13.84625 C98.595,14.085 98.355,14.445375 98.655,15.103 L99.79125,17.556125 C100.03,18.15525 100.33,18.3335 101.1075,18.035125 C104.27875,16.5395 107.87,15.880875 110.6825,15.880875 C114.5125,15.880875 116.90625,17.496125 116.90625,20.369625 C116.90625,23.30125 114.2125,24.67675 109.545,26.3535 C102.8425,28.746625 99.97,30.84125 99.97,35.568875 C99.97,40.59525 103.74125,44.184625 110.6225,44.184625 C113.85375,44.184625 116.90625,43.7075 120.0175,42.44925 C120.49625,42.2105 120.61625,41.7315 120.49625,41.313 L119.35875,38.501 C119.12,38.022 118.82125,38.082 118.46125,38.26025 C115.29,39.457 113.195,39.757375 110.5025,39.757375 C106.97125,39.757375 105.0575,38.022 105.0575,35.867625 C105.0575,33.174375 107.03125,32.097625 112.17875,30.182125 C117.145,28.328125 121.9325,26.233375 121.9325,20.608375 C121.9325,14.445375 116.96625,11.453125 110.6825,11.453125" id="path22" fill="#1F2EA8"></path>
                    <path d="M133.545,11.453125 L130.3125,11.453125 C129.655,11.453125 129.29625,11.57325 129.29625,12.351125 L129.29625,32.61375 C129.29625,33.391625 129.655,33.51175 130.3125,33.51175 L133.545,33.51175 C134.2625,33.51175 134.5025,33.391625 134.5025,32.61375 L134.5025,12.351125 C134.5025,11.57325 134.2625,11.453125 133.545,11.453125" id="path24" fill="#1F2EA8"></path>
                    <path d="M141.565,39.765625 C140.8475,39.765625 140.72625,40.1245 140.72625,40.6035 L140.72625,42.680625 C140.72625,43.278375 140.90625,43.5185 141.565,43.69675 L146.2325,44.59475 L147.19,49.631875 C147.30875,50.409125 147.60875,50.527875 148.2675,50.828125 L150.24125,51.545875 C150.78,51.6655 151.13875,51.545875 151.13875,50.768125 L151.13875,44.235875 L157.78125,44.235875 C158.5,44.235875 158.62,43.8775 158.62,43.337875 L158.62,40.6035 C158.62,40.004375 158.5,39.765625 157.78125,39.765625 L151.13875,39.765625 L151.13875,20.00925 C151.13875,17.257375 152.27625,16.0605 155.14875,16.0605 C156.16625,16.0605 158.44,16.299375 159.75625,16.4795 C160.47375,16.598125 160.595,16.419375 160.655,16.0005 L161.1925,13.307625 C161.2525,12.828625 161.3725,12.52975 160.71375,12.291 C158.38,11.57175 155.4475,11.453125 154.31125,11.453125 C148.0875,11.453125 145.93375,14.085 145.93375,19.650375 L145.93375,39.765625 L141.565,39.765625" id="path26" fill="#1F2EA8"></path>
                    <path d="M178.37,39.817375 C173.10375,39.817375 170.23125,35.388625 169.9325,30.482375 L186.5075,30.482375 C186.5075,35.50875 184.8325,39.817375 178.37,39.817375 Z M191.415,30.9595 C191.415,27.191375 189.32125,26.2935 186.9275,26.2935 L169.7525,26.2935 C169.8125,18.7525 174.06,16.0005 179.2675,16.0005 C181.9,16.0005 184.65375,16.778375 186.32875,17.67625 C186.86625,17.975125 187.16625,17.9145 187.465,17.3775 L188.72125,14.86425 C189.02125,14.265125 188.9025,13.90625 188.3625,13.666 C185.49125,11.930625 182.02,11.453125 178.84875,11.453125 C169.8725,11.453125 164.48625,16.359375 164.48625,27.669 C164.48625,38.200625 170.41,44.184625 178.30875,44.184625 C187.40625,44.184625 191.415,38.79975 191.415,30.9595 L191.415,30.9595 Z" id="path28" fill="#1F2EA8"></path>
                </g>
            </g>
        </g>
    </g>
</svg>