<?xml version="1.0" encoding="UTF-8"?>
<svg width="482px" height="378px" viewBox="0 0 482 378" version="1.1" xmlns="http://www.w3.org/2000/svg" xmlns:xlink="http://www.w3.org/1999/xlink">
    <!-- Generator: Sketch 41.1 (35376) - http://www.bohemiancoding.com/sketch -->
    <title>logo-purefood-image-deuxlignes</title>
    <desc>Created with Sketch.</desc>
    <defs></defs>
    <g id="Page-1" stroke="none" stroke-width="1" fill="none" fill-rule="evenodd">
        <g id="logo-purefood-image-deuxlignes" fill="#1F2EA8">
            <path d="M9.6797,58.6843 L51.9477,28.9693 L64.6027,42.3643 C64.6027,42.3643 95.1477,-11.7307 123.1607,3.2133 C150.8257,17.9693 137.2587,94.2443 68.8927,116.2543 C68.0317,116.5343 66.7177,117.0263 63.7517,117.3753 C60.9457,117.7173 56.1027,116.5593 53.9407,114.0733 C51.2807,111.0123 54.7537,110.1783 54.7537,110.1783 C54.7537,110.1783 72.6517,107.4183 94.1557,83.3953 C118.9497,52.7943 102.4957,37.0503 102.4957,37.0503 C102.4957,37.0503 90.1867,23.8443 66.6267,62.1663 C43.0677,100.4893 33.9917,181.0983 42.9817,202.2803 C42.9817,202.2803 48.4197,209.7433 41.7387,211.3483 C35.0577,212.9553 4.1987,216.4913 0.8927,191.2333 C-2.4133,165.9773 26.6687,98.5463 26.6687,98.5463 C26.6687,98.5463 39.4787,72.0793 39.2517,50.0363 L12.3827,63.3073 C12.3827,63.3073 9.6727,64.2743 8.4827,62.8503 C6.6377,60.6443 9.6797,58.6843 9.6797,58.6843" id="Fill-1"></path>
            <path d="M162.3428,145.5691 C161.7298,146.5941 160.5048,147.9191 158.6668,149.5511 C156.8288,151.1901 154.6318,152.7681 152.0798,154.2981 C149.5238,155.8311 146.7668,157.1041 143.8088,158.1301 C140.8458,159.1491 137.8348,159.6631 134.7708,159.6631 C130.4818,159.6631 127.1128,158.9951 124.6608,157.6711 C122.2098,156.3401 120.3238,154.7121 118.9928,152.7681 C117.6678,150.8291 116.8488,148.5851 116.5428,146.0281 C116.2358,143.4771 116.0828,140.9731 116.0828,138.5221 C116.0828,134.0321 116.6958,129.1301 117.9208,123.8171 C119.1468,118.5081 120.4768,113.1451 121.9038,107.7331 C123.3358,102.3251 124.6608,96.9631 125.8868,91.6491 C127.1128,86.3401 127.7248,81.2331 127.7248,76.3311 C127.7248,74.2941 127.3658,72.8081 126.6528,71.8891 C125.9348,70.9711 125.1728,70.3571 124.3548,70.0511 C123.5408,69.7451 122.7748,69.5921 122.0568,69.5921 C121.3438,69.5921 120.9848,69.3891 120.9848,68.9791 C120.9848,68.7781 121.9038,68.5201 123.7418,68.2131 C125.5808,67.9071 128.0308,67.7541 131.0938,67.7541 C134.1578,67.7541 137.0688,68.0591 139.8258,68.6731 C142.5828,69.2851 145.0828,70.2571 147.3318,71.5831 C149.5768,72.9131 151.3628,74.7531 152.6928,77.0981 C154.0198,79.4481 154.6838,82.2571 154.6838,85.5221 C154.6838,88.7921 154.0718,92.5691 152.8468,96.8571 C151.6208,101.1471 150.1368,105.6941 148.4038,110.4911 C146.6658,115.2921 144.9278,120.1921 143.1958,125.1961 C141.4588,130.2041 140.0798,135.0531 139.0598,139.7471 C138.8548,139.9561 138.7538,140.2601 138.7538,140.6691 C138.5478,141.0791 138.4478,141.8911 138.4478,143.1201 C138.4478,144.3421 138.8008,145.5201 139.5188,146.6411 C140.2328,147.7661 141.7118,148.3271 143.9618,148.3271 C146.6138,148.3271 149.0638,147.6121 151.3148,146.1801 C153.5598,144.7571 155.4978,142.9651 157.1348,140.8211 C158.7668,138.6761 160.1468,136.4301 161.2718,134.0811 C162.3918,131.7371 163.2618,129.6371 163.8758,127.7991 C166.5268,115.3441 168.8238,105.4891 170.7678,98.2371 C172.7068,90.9891 173.6778,85.6281 173.6778,82.1531 C173.6778,79.9081 173.3198,78.3231 172.6068,77.4031 C171.8878,76.4841 171.1218,75.8721 170.3088,75.5671 C169.4898,75.2581 168.7238,75.1591 168.0108,75.2581 C167.2938,75.3641 166.9388,75.2121 166.9388,74.7991 C167.5508,74.5991 168.3658,74.3931 169.3898,74.1861 C171.4288,73.7811 173.8798,73.5751 176.7418,73.5751 C182.8688,73.5751 188.3838,74.9051 193.2858,77.5571 C198.1868,80.2141 200.6378,84.8091 200.6378,91.3431 C200.6378,94.4071 200.0248,97.6241 198.7998,100.9941 C197.5738,104.3641 196.1968,107.9381 194.6638,111.7171 C193.1328,115.4991 191.4948,119.5811 189.7618,123.9711 C188.0248,128.3641 186.7468,133.0101 185.9328,137.9111 C185.9328,138.5221 185.9808,139.3951 186.0858,140.5141 C186.1858,141.6371 186.3928,142.7121 186.6988,143.7311 C187.0058,144.7571 187.5128,145.6221 188.2308,146.3351 C188.9438,147.0531 190.0158,147.4091 191.4468,147.4091 C194.9178,147.4091 197.6218,146.0811 199.5668,143.4241 C201.5048,140.7701 203.0488,137.7941 204.3148,134.5401 C208.6258,123.4641 207.0348,128.3131 207.8538,125.6551 C208.6668,123.0051 209.5678,120.8821 210.9988,120.8821 C211.8128,120.8821 213.2408,121.6411 213.4468,122.4561 C213.6468,123.2741 214.1968,124.2531 214.1968,124.6611 C214.1968,125.6841 207.2958,141.2491 205.2338,144.3421 C204.6208,145.3681 203.5488,146.6941 202.0168,148.3271 C200.4848,149.9641 198.6468,151.5421 196.5028,153.0751 C194.3578,154.6081 191.9548,155.8821 189.3028,156.9051 C186.6458,157.9241 183.7878,158.4361 180.7248,158.4361 C174.3918,158.4361 169.9488,157.1571 167.3988,154.6081 C164.8428,152.0551 163.2618,148.9381 162.6498,145.2641 C162.6498,145.4671 162.5448,145.5691 162.3428,145.5691" id="Fill-3"></path>
            <path d="M221.6128,61.6267 C221.6128,62.8527 221.8678,64.0767 222.3798,65.3027 C222.8868,66.5277 223.5518,67.6527 224.3708,68.6727 C224.3708,66.6337 224.2178,64.3357 223.9108,61.7797 C223.6058,59.2277 223.1458,57.8497 222.5318,57.6447 C222.1208,57.6447 221.8678,58.1037 221.7668,59.0227 C221.6618,59.9417 221.6128,60.8127 221.6128,61.6267 M226.0608,96.0127 C221.7718,107.0417 218.3968,115.2917 215.6398,121.5207 C212.8828,127.7527 210.9918,130.8637 209.9718,130.8637 C207.7268,130.8637 206.6018,130.1507 206.6018,128.7197 C209.0518,122.1847 210.9398,116.7237 212.2698,112.3287 C213.5948,107.9387 214.8208,103.5977 215.9458,99.3087 C217.0668,95.0207 217.6318,91.8557 217.6318,89.8117 C217.6318,89.4047 217.5998,88.8817 217.3238,88.5847 C215.0628,86.1487 212.5758,82.9187 210.4308,78.3227 C208.2868,73.7277 207.2148,69.6977 207.2148,66.2217 C207.2148,62.5457 207.7268,59.4347 208.7468,56.8777 C209.7708,54.3257 211.0438,52.1827 212.5758,50.4447 C214.1078,48.7117 215.7398,47.4857 217.4778,46.7687 C219.2108,46.0537 220.7948,45.6957 222.2258,45.6957 C224.8778,45.6957 227.0218,46.6137 228.6588,48.4537 C230.2918,50.2897 231.5698,52.3877 232.4888,54.7327 C233.4078,57.0837 234.0208,59.4347 234.3278,61.7797 C234.6338,64.1297 234.7858,65.8147 234.7858,66.8347 C234.7858,67.4477 234.7338,68.9797 234.6338,71.4297 C234.5288,73.8807 234.1738,75.1057 233.5608,75.1057 C233.1508,75.1057 232.5368,74.9047 231.7228,74.4937 C231.1108,74.0867 230.4458,73.7277 229.7328,73.4207 C229.0138,73.1157 228.1478,72.5557 227.1278,71.7357 C227.9418,73.1667 229.0668,74.3937 230.4978,75.4117 C231.7228,76.4367 233.4078,77.3047 235.5528,78.0177 C237.6968,78.7347 240.4018,79.0897 243.6708,79.0897 C244.6918,79.0897 245.7638,79.0397 246.8888,78.9357 C248.0078,78.8357 249.0798,78.7817 250.1058,78.7817 C256.0258,78.7817 261.3878,80.1117 266.1898,82.7667 C270.9858,85.4207 273.3888,89.7117 273.3888,95.6317 C273.3888,98.6957 272.7758,101.7587 271.5508,104.8227 C270.3238,107.8857 268.8398,111.2097 267.1078,114.7797 C265.3708,118.3557 263.6328,122.2387 261.8998,126.4227 C260.1618,130.6097 258.7828,135.2587 257.7638,140.3617 C257.7638,140.7707 257.7108,141.2307 257.6118,141.7387 C257.5058,142.2527 257.4568,142.7117 257.4568,143.1197 C257.4568,145.3677 257.8638,146.8487 258.6828,147.5617 C259.4968,148.2777 261.0288,148.6317 263.2788,148.6317 C266.7488,148.6317 269.4528,147.3077 271.3968,144.6487 C273.3358,141.9987 274.8668,139.0337 275.9918,135.7667 C277.1128,132.5007 278.1368,129.5357 279.0548,126.8817 C279.9748,124.2277 281.0468,122.8977 282.2728,122.8977 C283.2918,122.8977 283.9048,123.3577 284.1108,124.2777 C284.3118,125.1957 284.4168,125.8617 284.4168,126.2687 C284.4168,127.4927 284.0588,129.4387 283.3458,132.0887 C282.6258,134.7467 280.5348,139.2407 277.0648,145.5687 C276.4508,146.5947 275.4798,147.9187 274.1548,149.5517 C272.8228,151.1897 271.1388,152.7687 269.0998,154.2977 C267.0548,155.8307 264.6558,157.1047 261.8998,158.1297 C259.1428,159.1487 255.9258,159.6627 252.2498,159.6627 C244.6918,159.6627 239.6888,157.8697 237.2378,154.2977 C234.7858,150.7277 233.5608,146.5947 233.5608,141.8917 C233.5608,135.3577 234.7858,128.6707 237.2378,121.8267 C239.6888,114.9847 242.1398,108.0907 244.5898,101.1477 C244.5898,100.3327 243.9248,99.5667 242.5998,98.8487 C241.2688,98.1357 239.6888,97.5227 237.8508,97.0107 C236.0128,96.5027 234.1218,96.0927 232.1828,95.7847 C230.2398,95.4797 228.7388,95.3257 227.5138,95.3257 C227.3078,95.3257 226.5828,95.2427 226.0608,96.0127" id="Fill-4"></path>
            <path d="M321.5674,91.0378 C319.7284,91.2428 317.6324,92.4158 315.2874,94.5588 C312.9374,96.7038 310.6914,99.2078 308.5464,102.0658 C306.4024,104.9288 304.6134,107.7858 303.1854,110.6428 C301.7554,113.5068 301.0414,115.7528 301.0414,117.3838 C301.0414,117.7958 301.6544,118.1488 302.8804,118.4538 C304.1054,118.7628 305.5314,118.9168 307.1694,118.9168 C309.2084,118.9168 311.6584,118.6098 314.5214,117.9948 C317.3794,117.3838 320.0844,116.3128 322.6394,114.7798 C325.1914,113.2468 327.3874,111.1568 329.2264,108.4988 C331.0644,105.8488 331.9834,102.3718 331.9834,98.0828 C331.9834,94.8188 330.9594,92.5688 328.9214,91.3438 C326.8754,90.1178 324.4254,90.0168 321.5674,91.0378 M300.4284,159.9678 C295.1154,159.7608 290.9314,158.3308 287.8684,155.6788 C284.8044,153.0238 282.4594,150.0128 280.8224,146.6418 C279.1894,143.2718 278.1174,139.8988 277.6054,136.5318 C277.0974,133.1628 276.8384,130.4578 276.8384,128.4128 C276.8384,117.7958 278.6294,108.6508 282.2004,100.9938 C285.7714,93.3348 290.1664,87.0068 295.3734,81.9988 C300.5824,76.9968 306.0444,73.3208 311.7644,70.9718 C317.4794,68.6258 322.3804,67.4478 326.4694,67.4478 C332.5964,67.4478 338.0584,69.6978 342.8594,74.1858 C347.6564,78.6828 350.0584,84.6018 350.0584,91.9558 C350.0584,97.2698 348.8804,102.0658 346.5354,106.3538 C344.1854,110.6428 341.1214,114.2718 337.3454,117.2308 C333.5644,120.1918 329.3264,122.4378 324.6304,123.9718 C319.9294,125.5008 315.1334,126.2678 310.2324,126.2678 C305.9434,126.2678 301.9614,125.6548 298.2844,124.4308 C297.6714,126.0668 297.1594,127.7528 296.7534,129.4848 C296.3404,131.2238 296.1404,132.9088 296.1404,134.5398 C296.1404,138.6258 297.2124,142.2528 299.3564,145.4168 C301.5004,148.5848 305.1254,150.1648 310.2324,150.1648 C316.3594,150.1648 322.1284,148.5318 327.5424,145.2648 C332.9514,141.9988 337.6684,139.3208 341.2884,134.4478 C343.3614,131.6568 347.2034,129.0068 348.8164,130.0298 C350.4304,131.0558 349.8184,135.7528 346.8674,139.3288 C345.2574,141.2798 344.0964,142.3598 338.1104,147.0988 C332.8554,151.2628 326.9294,154.3538 320.4954,156.5968 C314.0614,158.8428 307.3694,159.9678 300.4284,159.9678" id="Fill-5"></path>
            <path d="M300.5078,266.4284 C301.7328,267.8604 302.6018,270.0574 303.1118,273.0164 C303.6188,275.9784 303.6718,279.5024 303.2658,283.5844 C302.8538,288.8994 301.7808,294.7194 300.0488,301.0494 C298.3108,307.3814 295.6058,313.1514 291.9298,318.3584 C288.2538,323.5674 283.5058,327.8564 277.6838,331.2234 C271.8628,334.5964 264.8658,336.0744 256.6988,335.6664 C252.6118,335.4634 248.7808,334.5414 245.2108,332.9104 C241.6358,331.2744 238.5188,328.9264 235.8658,325.8644 C233.2148,322.8014 231.1708,318.9244 229.7388,314.2234 C228.3128,309.5264 227.8008,304.1144 228.2078,297.9854 C228.6188,291.8584 230.0988,285.3774 232.6508,278.5304 C235.2008,271.6914 238.6728,265.5104 243.0668,259.9944 C247.4548,254.4814 252.5628,249.9914 258.3838,246.5164 C264.2048,243.0464 270.5858,241.5144 277.5308,241.9204 C280.7968,242.1254 283.8108,242.8384 286.5688,244.0664 C289.3258,245.2894 291.6228,246.6694 293.4608,248.2014 C295.2988,249.7334 296.6778,251.2654 297.5978,252.7954 C298.5178,254.3284 298.9768,255.5054 298.9768,256.3204 C298.9768,256.7334 298.6698,256.9324 298.0568,256.9324 C297.0328,256.7334 296.0668,256.4734 295.1468,256.1664 C294.2268,255.8604 293.2558,255.7074 292.2368,255.7074 C286.7228,255.5054 281.5138,257.1374 276.6118,260.6104 C271.7098,264.0844 267.3678,268.5744 263.5918,274.0874 C259.8108,279.6044 256.7018,285.8174 254.0058,292.3174 C249.6378,302.8444 249.9318,308.3034 249.9498,308.9184 C249.9698,309.5334 250.0138,315.1254 251.8508,318.8504 C253.4478,322.0904 255.7578,325.2274 261.6508,325.9674 C263.8998,326.2524 265.9718,327.0414 271.0438,325.1084 C273.2088,324.2824 277.5688,321.6314 282.1268,315.4484 C283.6448,313.3874 284.4238,311.1104 285.3438,309.1684 C286.2618,307.2274 287.0758,305.0304 287.7948,302.5804 C288.5078,300.1274 288.9668,297.6784 289.1718,295.2274 C289.3728,291.5534 289.2208,288.6394 288.7128,286.4984 C288.2008,284.3544 288.4588,284.2484 287.5408,283.1234 C286.6208,282.0034 286.3928,281.9304 285.6508,280.4724 C285.4358,280.0554 283.4198,273.9464 288.0548,267.8244 C291.3928,263.4184 295.9098,264.1314 296.5258,264.2834 C297.7498,264.5904 299.4828,265.4094 300.5078,266.4284" id="Fill-6"></path>
            <path d="M376.001,266.4304 C377.226,267.8604 378.093,270.0594 378.605,273.0164 C379.112,275.9794 379.165,279.5024 378.759,283.5844 C378.347,288.8994 377.274,294.7194 375.542,301.0494 C373.804,307.3814 371.099,313.1514 367.423,318.3584 C363.747,323.5674 358.999,327.8564 353.178,331.2234 C347.355,334.5964 340.357,336.0754 332.191,335.6664 C328.104,335.4634 324.273,334.5414 320.703,332.9104 C317.129,331.2744 314.01,328.9264 311.359,325.8644 C308.707,322.8014 306.664,318.9244 305.232,314.2234 C303.805,309.5264 303.293,304.1144 303.699,297.9854 C304.111,291.8584 305.592,285.3774 308.143,278.5324 C310.693,271.6914 314.166,265.5104 318.559,259.9954 C322.947,254.4834 328.057,249.9924 333.875,246.5164 C339.697,243.0464 346.078,241.5144 353.023,241.9204 C356.29,242.1274 359.306,242.8404 362.062,244.0664 C364.819,245.2914 367.116,246.6694 368.954,248.2014 C370.792,249.7334 372.171,251.2654 373.091,252.7964 C374.009,254.3284 374.47,255.5064 374.47,256.3204 C374.47,256.7334 374.163,256.9334 373.55,256.9334 C372.524,256.7334 371.56,256.4734 370.64,256.1664 C369.72,255.8604 368.749,255.7074 367.73,255.7074 C362.216,255.5064 357.007,257.1384 352.104,260.6104 C347.201,264.0844 342.861,268.5754 339.084,274.0884 C335.303,279.6044 332.195,285.8174 329.498,292.3174 C325.131,302.8444 325.424,308.3034 325.443,308.9184 C325.461,309.5344 325.506,315.1254 327.342,318.8504 C328.941,322.0904 331.25,325.2274 337.143,325.9674 C339.393,326.2524 341.463,327.0414 346.537,325.1084 C348.701,324.2824 353.061,321.6314 357.62,315.4484 C359.138,313.3874 359.917,311.1104 360.837,309.1684 C361.755,307.2274 362.567,305.0304 363.288,302.5804 C364.001,300.1274 364.458,297.6784 364.665,295.2274 C364.866,291.5534 364.714,288.6394 364.204,286.4984 C363.694,284.3544 363.95,284.2484 363.034,283.1234 C362.114,282.0034 361.886,281.9304 361.144,280.4724 C360.929,280.0554 358.915,273.9474 363.548,267.8264 C366.886,263.4184 371.403,264.1334 372.017,264.2854 C373.243,264.5914 374.976,265.4094 376.001,266.4304" id="Fill-7"></path>
            <path d="M438.3896,279.5554 C440.4056,272.7784 441.6476,268.7864 443.0786,263.4724 C437.7666,262.8604 431.8756,263.4244 426.6686,265.1594 C421.4616,266.8964 416.8136,269.6004 412.7296,273.2764 C408.6396,276.9514 405.3756,281.3454 402.9246,286.4484 C400.4736,291.5554 399.2486,297.0714 399.2486,302.9924 C399.2486,310.1434 401.9326,318.1864 409.0536,318.8304 C411.4966,319.0264 413.7006,318.0654 416.3566,316.5344 C431.6536,304.5824 436.4166,286.1944 438.3896,279.5554 M474.6126,320.4534 C474.0006,321.4794 472.9756,322.8034 471.5476,324.4384 C470.1186,326.0754 468.3326,327.7054 466.1886,329.3384 C464.0436,330.9694 461.6946,332.4034 459.1416,333.6274 C456.5866,334.8524 453.7826,335.4654 450.7176,335.4654 C445.4056,335.4654 441.4736,334.3934 438.9226,332.2484 C436.3686,330.1044 434.5286,327.8054 433.4096,325.3564 C432.2846,322.9054 431.6726,320.6064 431.5696,318.4614 C431.4656,316.3174 431.2436,315.0964 431.1126,315.2464 C424.5046,322.8664 419.7846,326.2414 415.2216,329.3054 C409.7626,332.9754 404.7096,334.4944 399.0946,333.1664 C393.4756,331.8364 388.6786,328.4734 384.6966,323.0574 C380.7136,317.6494 379.4366,310.3444 379.4366,301.1534 C379.4366,295.0284 380.2876,289.2054 382.2276,283.6924 C384.1706,278.1784 386.3836,274.0694 389.3406,269.5734 C392.3016,265.0824 395.7336,261.7524 399.3096,258.3834 C402.8796,255.0124 405.6886,253.6874 409.1026,251.7374 C415.5516,248.0534 422.9596,246.3954 429.9856,245.5654 C437.8236,244.6364 443.6806,245.1804 447.4406,246.0104 C448.6196,241.9024 451.3446,232.7034 452.4016,227.1704 C453.3216,222.3734 457.5376,198.9294 453.2526,189.1374 C452.9246,188.6194 452.7276,187.2604 454.1516,187.1754 C455.7236,187.4374 454.9146,187.3014 458.9896,188.1084 C461.5906,188.6234 482.3956,195.7384 480.6626,204.8744 C479.5226,210.8874 478.3306,215.0374 475.7236,223.2354 C473.2566,230.9934 471.5346,238.0224 468.5556,246.8414 C465.5736,255.6644 461.4246,267.0344 458.2936,276.0434 C454.9126,285.7684 453.6316,290.2854 451.5926,298.2524 C451.3856,299.2764 450.8056,301.9204 450.1946,304.3714 C449.5806,306.8234 448.7526,311.9634 448.4466,314.5144 C448.1396,317.0694 448.4876,319.5394 449.4946,321.2464 C450.6316,323.1704 452.9776,324.5024 455.0066,324.7434 C460.8606,325.4444 463.6316,323.3644 466.1886,320.6064 C468.7396,317.8504 470.7846,314.7874 472.3156,311.4164 C473.8466,308.0474 475.0206,304.9344 475.8386,302.0714 C476.6536,299.2154 477.7766,297.6844 479.2076,297.4794 C480.4346,297.4794 480.7726,297.9754 481.0306,298.7334 C481.4936,300.0904 481.2276,303.6294 480.4736,307.5864 C479.8956,310.6234 478.0826,314.9404 474.6126,320.4534" id="Fill-8"></path>
            <path d="M194.1094,244.9753 C187.5804,248.1233 169.0474,251.7373 155.0574,251.7373 C143.5164,251.7373 138.2714,247.4233 137.6894,241.2463 C137.1074,235.0693 141.6514,232.5023 141.6514,232.5023 C146.7824,227.8383 172.7774,225.8583 172.7774,225.8583 C172.7774,225.8583 257.4094,223.0613 275.9454,207.6723 C294.4804,192.2843 285.0374,171.3013 285.0374,171.3013 C260.5574,194.3833 177.3224,197.1803 144.4484,200.1743 C111.5744,203.1703 109.8264,230.7543 109.8264,230.7543 C109.8264,230.7543 107.7264,258.3833 140.6004,259.5493 C173.4744,260.7153 194.9254,249.5243 194.9254,249.5243 C194.9254,249.5243 198.5414,248.1253 197.7234,245.9103 C196.9084,243.6963 194.1094,244.9753 194.1094,244.9753" id="Fill-9"></path>
            <path d="M112.0391,298.8366 C112.0391,298.8366 74.2701,338.7056 118.1011,368.7796 C165.1981,396.7586 184.0841,345.9326 184.0841,345.9326 C184.0841,345.9326 193.1851,324.4816 203.5011,288.1866 C209.3331,267.6746 217.4741,249.7106 219.0601,246.8416 C219.0601,246.8416 222.7111,241.1096 227.3741,239.9426 C227.3741,239.9426 230.5771,238.7666 230.5771,237.4556 C230.5811,236.8466 231.6181,235.5636 228.2081,234.4266 C225.5851,233.3776 208.3601,229.2686 208.3601,229.2686 C208.3601,229.2686 199.0941,227.4326 195.5971,229.2686 C194.3721,229.9676 186.8521,231.8916 183.4421,245.8796 C180.0331,259.8686 176.6241,294.7546 176.6241,294.7546 C176.6241,294.7546 171.0251,369.4796 138.6181,358.0556 C105.9501,344.2626 143.6801,308.2896 143.6621,308.3076 C143.6621,308.3076 150.1321,303.3226 151.0941,301.0496 C151.6081,299.8306 152.6671,298.4266 147.6841,295.6296 C142.7001,292.8306 133.4331,287.9346 126.7001,289.4206 C119.9681,290.9066 112.0391,298.8366 112.0391,298.8366" id="Fill-10"></path>
            <path d="M234.2129,266.3113 C238.4149,259.8113 235.0289,257.3343 235.0289,257.3343 C235.0289,257.3343 234.0969,255.8193 229.2009,258.5003 C213.5809,265.1453 194.5779,258.9673 175.2269,263.0463 C155.8739,267.1283 156.8089,283.2133 156.8089,283.2133 C156.8089,283.2133 156.8019,290.4403 160.7459,292.1923 C160.7459,292.1923 163.3359,293.4713 166.2489,291.4913 C166.2489,291.4913 176.0429,284.4953 187.6989,284.2623 C199.3579,284.0283 221.6239,285.7823 234.2129,266.3113" id="Fill-11"></path>
        </g>
    </g>
</svg>