<?xml version="1.0" encoding="UTF-8" standalone="no"?>
<svg width="581px" height="252px" viewBox="0 0 581 252" version="1.1" xmlns="http://www.w3.org/2000/svg" xmlns:xlink="http://www.w3.org/1999/xlink">
    <!-- Generator: Sketch 3.8.3 (29802) - http://www.bohemiancoding.com/sketch -->
    <title>Group 2</title>
    <desc>Created with Sketch.</desc>
    <defs>
        <rect id="path-1" x="0" y="0" width="581" height="252"></rect>
    </defs>
    <g id="website" stroke="none" stroke-width="1" fill="none" fill-rule="evenodd">
        <g id="Artboard-5" transform="translate(-1878.000000, -596.000000)">
            <g id="Group-2" transform="translate(1878.000000, 596.000000)">
                <mask id="mask-2" fill="white">
                    <use xlink:href="#path-1"></use>
                </mask>
                <g id="Rectangle-401"></g>
                <path d="M0,0 L581,0 L581,320 L0,320 L0,0 Z M58,68 C67.9411255,68 76,59.9411255 76,50 C76,40.0588745 67.9411255,32 58,32 C48.0588745,32 40,40.0588745 40,50 C40,59.9411255 48.0588745,68 58,68 Z M58,288 C67.9411255,288 76,279.941125 76,270 C76,260.058875 67.9411255,252 58,252 C48.0588745,252 40,260.058875 40,270 C40,279.941125 48.0588745,288 58,288 Z" id="Combined-Shape" fill="#FF2861" mask="url(#mask-2)"></path>
            </g>
        </g>
    </g>
</svg>