<?xml version="1.0" encoding="UTF-8" standalone="no"?>
<svg width="1080px" height="340px" viewBox="0 0 1080 340" version="1.1" xmlns="http://www.w3.org/2000/svg" xmlns:xlink="http://www.w3.org/1999/xlink">
    <!-- Generator: Sketch 3.8.3 (29802) - http://www.bohemiancoding.com/sketch -->
    <title>Group</title>
    <desc>Created with Sketch.</desc>
    <defs>
        <rect id="path-1" x="0" y="0" width="1080" height="340"></rect>
    </defs>
    <g id="website" stroke="none" stroke-width="1" fill="none" fill-rule="evenodd">
        <g id="Artboard-5" transform="translate(-180.000000, -516.000000)">
            <g id="Group" transform="translate(180.000000, 516.000000)">
                <mask id="mask-2" fill="white">
                    <use xlink:href="#path-1"></use>
                </mask>
                <g id="Rectangle-400"></g>
                <path d="M0,0 L1080,0 L1080,1004 L0,1004 L0,0 Z M58,146 C67.9411255,146 76,137.941125 76,128 C76,118.058875 67.9411255,110 58,110 C48.0588745,110 40,118.058875 40,128 C40,137.941125 48.0588745,146 58,146 Z M58,486 C67.9411255,486 76,477.941125 76,468 C76,458.058875 67.9411255,450 58,450 C48.0588745,450 40,458.058875 40,468 C40,477.941125 48.0588745,486 58,486 Z M58,826 C67.9411255,826 76,817.941125 76,808 C76,798.058875 67.9411255,790 58,790 C48.0588745,790 40,798.058875 40,808 C40,817.941125 48.0588745,826 58,826 Z" id="Combined-Shape" fill="#FFFFFF" mask="url(#mask-2)"></path>
            </g>
        </g>
    </g>
</svg>