<?xml version="1.0" encoding="UTF-8" standalone="no"?>
<svg width="714px" height="331px" viewBox="0 0 714 331" version="1.1" xmlns="http://www.w3.org/2000/svg" xmlns:xlink="http://www.w3.org/1999/xlink">
    <!-- Generator: Sketch 3.8.3 (29802) - http://www.bohemiancoding.com/sketch -->
    <title>Group</title>
    <desc>Created with Sketch.</desc>
    <defs>
        <rect id="path-1" x="0" y="0" width="714" height="331"></rect>
    </defs>
    <g id="website" stroke="none" stroke-width="1" fill="none" fill-rule="evenodd">
        <g id="Artboard-5" transform="translate(-341.000000, -953.000000)">
            <g id="Group" transform="translate(341.000000, 953.000000)">
                <mask id="mask-2" fill="white">
                    <use xlink:href="#path-1"></use>
                </mask>
                <g id="Rectangle-401"></g>
                <path d="M0,0 L714,0 L714,434 L0,434 L0,0 Z M58,83 C67.9411255,83 76,74.9411255 76,65 C76,55.0588745 67.9411255,47 58,47 C48.0588745,47 40,55.0588745 40,65 C40,74.9411255 48.0588745,83 58,83 Z M58,413 C67.9411255,413 76,404.941125 76,395 C76,385.058875 67.9411255,377 58,377 C48.0588745,377 40,385.058875 40,395 C40,404.941125 48.0588745,413 58,413 Z" id="Combined-Shape" fill="#00DF94" mask="url(#mask-2)"></path>
            </g>
        </g>
    </g>
</svg>